<svg width="219" height="196" viewBox="0 0 219 196" fill="none" xmlns="http://www.w3.org/2000/svg">
<path d="M185.603 156.663L183.971 155.135C186.639 152.295 189.135 149.254 191.393 146.079L193.212 147.376C190.894 150.626 188.331 153.749 185.596 156.656L185.603 156.663Z" fill="#BCB4A4"/>
<path d="M83.7903 84.4775H75.6978V110.567H83.7903C91.3017 110.567 97.9487 104.969 97.9487 97.4626C97.9487 89.4047 92.1959 84.4775 83.7903 84.4775ZM83.8947 107.242L80.1762 107.213V87.7723H83.8127C88.5445 87.7723 93.1199 90.7539 93.1199 97.4626C93.2242 102.695 89.1183 107.041 83.8947 107.242Z" fill="#BCB4A4"/>
<path d="M113.255 111.066C116.407 111.163 119.529 110.492 122.361 109.113V99.3411H118.165V106.929C116.735 107.459 115.214 107.69 113.694 107.593C108.91 107.593 104.752 103.679 104.752 97.5372C104.752 91.9839 108.612 87.4443 113.404 87.4443C115.751 87.407 118.083 87.9139 120.2 88.9351L121.466 85.7224C118.903 84.4627 116.071 83.8514 113.217 83.9558C105.639 83.9558 100.177 89.9563 100.177 97.5297C100.177 105.103 105.564 111.066 113.255 111.066Z" fill="#BCB4A4"/>
<path d="M133.553 107.816C131.168 107.831 128.806 107.31 126.653 106.288L125.281 109.27C127.815 110.574 130.632 111.208 133.478 111.111C137.957 111.111 143.039 108.137 143.039 103.523C143.039 99.766 138.844 97.2614 136.183 95.6215C133.195 93.7803 130.654 92.6473 130.654 90.1427C130.654 88.3835 132.308 87.325 134.931 87.325C136.794 87.3399 138.628 87.7648 140.297 88.5773L141.631 85.454C139.313 84.4105 136.787 83.9036 134.246 83.9632C129.641 83.9632 126.049 86.8629 126.049 90.8136C126.049 94.7642 129.678 97.0676 132.383 98.6702C135.326 100.437 138.151 101.801 138.151 104.268C138.151 106.259 136.012 107.749 133.553 107.749" fill="#BCB4A4"/>
<path d="M146.653 110.567H151.147V98.7895H159.262V95.4649H151.147V87.8021H162.235V84.4775H146.653V110.567Z" fill="#BCB4A4"/>
<path d="M32.2168 52.6333L34.1692 53.811L38.7967 46.1258L45.4958 61.459L47.1724 62.4727L54.259 50.7027L52.3067 49.5249L47.1352 58.127L40.5031 42.928L38.7073 41.8472L32.2168 52.6333Z" fill="#BCB4A4"/>
<path d="M61.219 39.3131C60.8688 40.3716 60.2801 41.3407 59.4977 42.1383V42.1084C57.8136 43.9571 55.8761 43.8602 54.0877 42.2426L59.5051 36.2793C56.1444 33.238 53.0221 33.812 51.0772 35.9588C48.9162 38.3292 49.2366 41.9966 51.8969 44.4118C54.6987 46.9536 57.9402 46.7747 60.3695 44.0838C61.5469 42.9359 62.3889 41.4897 62.8211 39.902L61.219 39.3131ZM52.4558 37.2856V37.3154C53.417 36.2644 54.7509 36.2719 56.1444 37.3303L52.8134 41.0127C51.8075 39.8498 51.4125 38.441 52.4558 37.2856Z" fill="#BCB4A4"/>
<path d="M66.0999 38.0008L68.3355 36.182L63.2236 29.9355C63.2236 29.3317 63.2236 27.7663 64.1625 27.0507C64.5574 26.6929 65.0642 26.4768 65.5932 26.432L65.161 24.1958C64.4159 24.2107 63.7005 24.4716 63.1193 24.9412C61.9121 25.8879 62.0388 27.9229 62.0388 28.6683L60.7123 27.1775L58.6333 28.877L66.085 38.0158" fill="#BCB4A4"/>
<path d="M78.1271 29.5705C79.0213 29.0264 79.8559 28.3853 80.6234 27.6697L79.6174 26.4025C79.0958 26.8348 78.5071 27.1852 77.8812 27.4386C76.7858 27.8635 76.1449 27.6324 75.3998 26.4472L72.0912 21.1473L74.7738 19.4776L73.8498 17.9868L71.1821 19.6491L68.5293 15.5791L67.0389 16.4885L68.7155 21.1622L66.9197 22.2878L67.8362 23.7786L69.6396 22.6605L73.3654 28.5791C74.5577 30.4948 76.2567 30.7333 78.1271 29.5705Z" fill="#BCB4A4"/>
<path d="M78.7008 10.5254C78.2835 9.75761 77.3521 9.43708 76.5473 9.77997C75.7499 10.1676 75.4146 11.1292 75.8021 11.9268C76.1896 12.7244 77.1509 13.0598 77.9556 12.6722C78.753 12.2846 79.0883 11.323 78.7008 10.5179" fill="#BCB4A4"/>
<path d="M77.9036 15.8924L83.0602 26.5146L85.6459 25.2623L80.4893 14.6401L77.9036 15.8924Z" fill="#BCB4A4"/>
<path d="M89.9827 3.43643C89.014 3.40661 88.0527 3.57806 87.151 3.92095C84.0884 5.06889 83.8052 7.98345 85.1838 11.6509L85.4968 12.4783L83.7605 13.1268L84.3715 14.7593L86.1078 14.1107L89.6399 23.5328L92.3524 22.5115L88.8202 13.097L91.4283 12.113L90.8173 10.4806L88.2092 11.4645L87.4119 9.34756C86.8157 7.7971 86.9498 6.16464 88.157 5.71739C88.7606 5.48632 89.4015 5.38196 90.0498 5.40432L89.9976 3.43643" fill="#BCB4A4"/>
<path d="M95.6013 4.47264C95.3703 3.61541 94.4835 3.10853 93.6266 3.34706C92.7696 3.57814 92.2629 4.46518 92.5013 5.32241C92.7547 6.16473 93.6191 6.66415 94.4761 6.45544C95.3106 6.18709 95.8025 5.32986 95.6087 4.47264" fill="#BCB4A4"/>
<path d="M93.865 9.62337L96.9649 21.0207L99.737 20.2753L96.5998 8.84814L93.865 9.62337Z" fill="#BCB4A4"/>
<path d="M111.734 18.0463L111.444 16.1604L105.318 17.122L110.065 8.03542L109.812 6.39551L101.063 7.75961L101.347 9.59333L106.861 8.72865L102.204 17.8525L102.457 19.4999L111.734 18.0463Z" fill="#BCB4A4"/>
<path d="M116.809 1.53555C116.727 0.670872 116.004 0.00745413 115.132 0C114.26 0.0670872 113.59 0.805046 113.597 1.68463C113.657 2.56422 114.395 3.23509 115.274 3.22018C116.146 3.14564 116.816 2.41514 116.809 1.53555Z" fill="#BCB4A4"/>
<path d="M113.94 6.13502L114.462 17.9349L117.323 17.8082L116.809 6.0083L113.94 6.13502Z" fill="#BCB4A4"/>
<path d="M132.092 12.9481C132.443 8.43086 130.118 6.29898 127.226 6.06045C124.045 5.79955 121.31 8.25941 121.012 11.8449C120.706 15.6166 122.815 18.0765 126.422 18.3747C128.054 18.6057 129.708 18.397 131.235 17.7783L130.729 16.1459C129.678 16.5186 128.553 16.6379 127.442 16.4962C124.954 16.2875 123.851 14.6923 124.045 12.2846L132.092 12.9481ZM126.988 7.97616C128.404 8.09542 129.201 9.15391 129.194 10.9354L124.246 10.5255C124.559 9.01228 125.438 7.84944 126.988 7.97616Z" fill="#BCB4A4"/>
<path d="M134.76 19.2169L137.547 19.8953L139.403 12.0386C139.917 11.7181 141.139 10.7416 142.287 11.0099C142.816 11.0919 143.292 11.3528 143.65 11.7553L145.193 10.0185C144.738 9.43711 144.097 9.02713 143.382 8.84823C141.869 8.49043 140.282 9.82472 139.738 10.272L140.081 8.34135L137.473 7.72266L134.76 19.2169Z" fill="#BCB4A4"/>
<path d="M148.74 23.6592C149.723 24.0543 150.752 24.345 151.795 24.5313L152.19 22.9585C151.527 22.8094 150.886 22.556 150.297 22.2131C149.276 21.6019 149.06 20.9459 149.552 19.6414L151.787 13.7974L154.723 14.908L155.334 13.2383L152.398 12.1277L154.015 7.54337L152.406 6.93213L149.716 11.1064L147.734 10.361L147.123 11.9935L149.105 12.7389L146.646 19.2687C145.848 21.3782 146.69 22.8691 148.747 23.6517" fill="#BCB4A4"/>
<path d="M166.214 25.8584C168.427 21.9002 167.168 18.9782 164.634 17.5694C161.847 16.0115 158.337 17.1221 156.579 20.2678C154.753 23.5849 155.655 26.7007 158.814 28.4673C160.2 29.3544 161.802 29.8538 163.449 29.9134L163.658 28.2139C162.54 28.1244 161.467 27.7666 160.521 27.1703L160.506 27.1405C158.33 25.9404 157.98 24.0247 159.157 21.9226L166.214 25.8584ZM163.621 19.2018L163.636 19.2316C164.88 19.9249 165.171 21.2219 164.403 22.8022L160.074 20.387C160.983 19.1422 162.264 18.4564 163.621 19.2018Z" fill="#BCB4A4"/>
<path d="M169.783 33.5289C168.867 32.7313 168.114 31.7697 167.548 30.6963L165.849 31.6579C166.505 33.0145 167.481 34.1848 168.695 35.0719C170.387 36.3913 172.973 36.7491 174.374 34.9526C175.581 33.4096 174.634 31.1361 174.165 30.1223C173.569 28.803 172.965 27.655 173.509 26.9543C173.964 26.3804 174.754 26.4922 175.454 27.0438C176.244 27.6848 176.877 28.4973 177.31 29.4142L178.964 28.5197C178.398 27.3047 177.526 26.2611 176.445 25.471C174.478 23.928 172.324 24.241 171.162 25.7319C169.873 27.3792 170.73 29.1757 171.259 30.4056C171.788 31.6355 172.459 33.0369 171.944 33.6631C171.43 34.2892 170.529 34.1028 169.783 33.5438" fill="#BCB4A4"/>
<path d="M190.469 59.6777L204.933 49.1301L203.346 46.8343L188.644 50.0246L196.841 37.4644L195.194 35.0791L180.097 44.7247L181.55 46.8194L191.513 40.4163L184.456 51.3366L185.559 52.9243L198.547 50.1364L188.756 57.203L190.469 59.6777Z" fill="#BCB4A4"/>
<path d="M203.845 61.3478L202.66 58.7314L191.915 63.6139L193.1 66.2303L203.845 61.3478Z" fill="#BCB4A4"/>
<path d="M208.003 59.6928C208.816 59.3275 209.173 58.3734 208.808 57.5609C208.443 56.7484 207.489 56.3906 206.677 56.7558C205.887 57.136 205.529 58.0752 205.88 58.8877C206.275 59.6629 207.199 60.0058 208.003 59.6704V59.6928Z" fill="#BCB4A4"/>
<path d="M195.663 73.9449C195.976 74.9587 196.401 75.9352 196.915 76.8595L198.406 76.1737C198.108 75.555 197.906 74.8991 197.809 74.2207C197.653 73.0579 198.026 72.4839 199.352 72.0441L205.313 70.0688L206.297 73.0504L207.944 72.4988L206.953 69.5172L211.521 67.8773L210.984 66.2523L206.044 66.789L205.38 64.7764L203.726 65.328L204.389 67.3406L197.772 69.5768C195.634 70.285 195.008 71.8801 195.701 73.9748" fill="#BCB4A4"/>
<path d="M210.507 84.4032C210.574 83.6206 210.537 82.8304 210.38 82.0552C209.889 79.1406 207.653 78.03 205.909 78.3281C204.836 78.4623 203.92 79.1853 203.54 80.1991C202.847 79.0735 201.557 78.4623 200.246 78.6412C199.18 78.7754 198.294 79.5059 197.958 80.5271C197.191 79.3791 195.842 78.7679 194.478 78.9468C191.87 79.3941 191.729 82.8826 192.243 85.8642C192.727 88.6372 195.104 91.3281 197.705 91.1865C200.306 91.0449 201.483 88.9353 201.051 86.4009L200.477 83.0689C200.343 82.3012 200.335 81.0489 201.274 80.8849C202.213 80.7209 202.645 81.9508 202.765 82.6962V82.6515L202.966 83.8144C203.376 86.1699 205.03 88.2048 207.511 87.78C208.242 87.6383 208.89 87.2209 209.33 86.6246L209.762 89.1366L211.252 88.8757L210.507 84.4032ZM196.997 88.6446C195.745 88.6968 194.329 87.1165 194.016 85.2903C193.733 83.6504 193.86 81.5334 195.171 81.2501C196.334 81.0489 197.466 82.1074 197.951 82.6217L198.599 86.4084C198.8 87.5787 198.383 88.6446 196.997 88.6446ZM207.027 85.1337C206.93 85.1561 206.826 85.171 206.722 85.1785C205.648 85.2455 204.724 84.4331 204.657 83.3597C204.642 83.2851 204.628 83.218 204.613 83.1435C204.456 82.0626 205.209 81.0563 206.297 80.8998V80.9222H206.304C207.452 80.7358 208.54 81.5185 208.726 82.6664C208.741 82.7261 208.748 82.7857 208.763 82.8528C208.912 83.9634 208.137 84.9847 207.027 85.1337Z" fill="#BCB4A4"/>
<path d="M218.145 92.5728L199.575 93.3405L199.695 96.2402L218.644 95.45L218.145 92.5728Z" fill="#BCB4A4"/>
<path d="M211.379 103.351L211.498 100.489L199.702 99.9971L199.59 102.867L211.372 103.337" fill="#BCB4A4"/>
<path d="M215.843 103.709C216.715 103.709 217.445 103.053 217.527 102.189C217.564 101.294 216.878 100.541 215.984 100.504C215.097 100.467 214.345 101.152 214.308 102.047C214.27 102.941 214.956 103.687 215.85 103.724V103.709H215.843Z" fill="#BCB4A4"/>
<path d="M205.224 106.982C201.498 106.348 198.86 108.249 198.257 111.82C197.891 113.422 197.959 115.099 198.45 116.672L200.112 116.3C199.836 115.219 199.814 114.086 200.045 112.997V113.027C200.44 110.56 202.131 109.598 204.509 109.993L203.167 117.962C207.638 118.715 209.963 116.546 210.44 113.691C210.992 110.508 208.771 107.578 205.224 106.982ZM208.57 113.258V113.288C208.331 114.667 207.206 115.368 205.44 115.241L206.267 110.344C207.743 110.783 208.831 111.753 208.57 113.288C208.57 113.281 208.57 113.273 208.57 113.258Z" fill="#BCB4A4"/>
<path d="M204.531 131.961C205.455 131.111 206.133 130.023 206.498 128.822C207.474 126.154 206.088 122.807 202.362 121.443C198.815 120.161 196.013 121.51 194.911 124.536C194.419 125.803 194.419 127.197 194.911 128.465L193.89 128.211H193.875L192.928 130.805L210.76 137.283L211.386 134.45L204.531 131.961ZM202.765 131.312L196.632 129.076C196.252 128.055 196.215 126.944 196.535 125.9C196.997 124.656 198.316 123.314 201.341 124.41C204.367 125.505 204.911 127.533 204.456 128.793L204.471 128.807C204.128 129.777 203.54 130.641 202.765 131.312Z" fill="#BCB4A4"/>
<path d="M180.015 169.857C178.711 167.584 176.311 167.517 174.24 169.007L171.512 171.005C170.886 171.467 169.746 172.049 169.202 171.266C168.658 170.483 169.567 169.537 170.149 169.104L170.171 169.089L171.125 168.396C173.025 166.98 174.105 164.595 172.615 162.56C172.161 161.971 171.497 161.576 170.767 161.449L172.824 159.958L171.915 158.721L168.241 161.419C167.511 161.71 166.818 162.105 166.199 162.589C163.8 164.349 163.8 166.846 164.85 168.277C165.461 169.171 166.512 169.656 167.585 169.559C166.885 170.677 166.914 172.108 167.66 173.197C168.256 174.091 169.314 174.561 170.372 174.404C169.694 175.604 169.754 177.08 170.514 178.228C172.071 180.345 175.231 178.929 177.697 177.118C179.962 175.455 181.319 172.131 180.015 169.857ZM167.004 166.726L166.982 166.741C166.982 166.741 166.959 166.712 166.944 166.689C166.281 165.735 166.527 164.423 167.481 163.767C167.54 163.715 167.608 163.67 167.675 163.626C168.599 163.007 169.85 163.26 170.462 164.185C170.529 164.267 170.596 164.356 170.648 164.453C171.184 165.377 170.864 166.562 169.94 167.099C169.88 167.151 169.821 167.196 169.761 167.241C168.859 167.859 167.622 167.628 167.004 166.726ZM176.423 175.776C175.082 176.737 173.137 177.572 172.295 176.521L172.272 176.536C171.557 175.604 172.019 174.113 172.295 173.42L175.387 171.184C176.333 170.483 177.466 170.386 178.1 171.616C178.703 172.712 177.913 174.68 176.423 175.776Z" fill="#BCB4A4"/>
<path d="M160.096 180.39L162.607 179.026L158.777 171.922C158.963 171.341 159.224 169.79 160.268 169.231C160.722 168.948 161.266 168.829 161.795 168.896V166.578C161.065 166.443 160.312 166.563 159.656 166.913C158.285 167.651 157.987 169.701 157.876 170.402L156.855 168.724L154.492 169.999L160.096 180.39Z" fill="#BCB4A4"/>
<path d="M154.552 176.663C153.263 173.1 149.783 171.825 146.4 173.048C143.017 174.27 141.176 177.468 142.465 181.031C143.754 184.594 147.19 185.884 150.595 184.654C154.001 183.424 155.841 180.219 154.552 176.663ZM149.947 182.865C148.054 183.551 146.199 182.283 145.372 179.987V180.017C144.529 177.692 144.999 175.612 147.048 174.837C148.784 174.211 150.774 175.433 151.601 177.729C152.428 180.025 151.691 182.231 149.947 182.865Z" fill="#BCB4A4"/>
<path d="M140.52 185.734V185.719C140.259 184.721 139.239 184.117 138.24 184.37C138.143 184.385 138.046 184.4 137.957 184.43C136.996 184.713 136.452 185.719 136.735 186.681C137.018 187.643 138.024 188.187 138.985 187.904H138.993C139.999 187.71 140.662 186.741 140.476 185.734" fill="#BCB4A4"/>
<path d="M133.896 169.954C132.964 169.701 131.988 169.633 131.034 169.76C127.793 170.155 126.839 172.928 127.308 176.812L127.443 177.684L125.602 177.908L125.818 179.644L127.644 179.428L128.866 189.409L131.742 189.059L130.52 179.07L133.292 178.735L133.076 177.006L130.312 177.341L130.036 175.105C129.835 173.45 130.349 171.899 131.623 171.743C132.264 171.661 132.912 171.713 133.531 171.892L133.918 169.954" fill="#BCB4A4"/>
<path d="M119.872 188.276C118.649 188.232 117.442 187.956 116.325 187.464L115.579 189.238C116.936 189.894 118.426 190.207 119.931 190.147C122.07 190.14 124.305 188.768 124.305 186.532C124.298 184.572 122.144 183.372 121.146 182.872C119.857 182.209 118.664 181.679 118.664 180.792C118.664 180.069 119.357 179.659 120.244 179.659C121.258 179.674 122.264 179.913 123.173 180.36L123.918 178.646C122.718 178.042 121.392 177.751 120.05 177.803C117.569 177.818 116.079 179.413 116.079 181.292C116.079 183.409 117.882 184.259 119.059 184.9C120.237 185.541 121.608 186.204 121.615 187.032C121.623 187.859 120.766 188.276 119.857 188.276" fill="#BCB4A4"/>
<path d="M114.767 178.191L110.251 177.557C109.521 177.259 108.761 177.058 107.979 176.969C105.028 176.551 103.292 178.34 103.046 180.099C102.859 181.165 103.269 182.253 104.111 182.932C102.822 183.237 101.846 184.281 101.622 185.585C101.421 186.644 101.853 187.717 102.725 188.343C101.399 188.724 100.408 189.827 100.162 191.184C99.7967 193.785 103.038 194.97 106.071 195.395C108.836 195.79 112.122 194.352 112.778 191.817C113.433 189.283 111.786 187.531 109.231 187.173L105.885 186.704C105.117 186.599 103.917 186.234 104.052 185.28C104.186 184.326 105.49 184.296 106.235 184.393L106.257 184.37L107.427 184.534C109.789 184.87 112.234 183.908 112.584 181.411C112.673 180.673 112.48 179.928 112.032 179.331L114.559 179.682L114.767 178.191ZM104.752 188.925L108.545 189.462C109.715 189.655 110.594 190.371 110.192 191.698C109.856 192.898 107.919 193.763 106.086 193.509C104.439 193.278 102.464 192.51 102.598 191.176L102.576 191.198C102.718 190.028 104.066 189.268 104.752 188.925ZM109.894 181.061C109.886 181.165 109.871 181.262 109.842 181.366C109.581 182.41 108.53 183.044 107.487 182.783C107.412 182.783 107.338 182.768 107.263 182.76C106.183 182.574 105.46 181.545 105.646 180.464L105.624 180.487C105.624 180.487 105.624 180.435 105.639 180.412C105.833 179.264 106.921 178.497 108.061 178.69C108.128 178.69 108.195 178.705 108.262 178.713C109.357 178.907 110.087 179.958 109.894 181.061Z" fill="#BCB4A4"/>
<path d="M102.971 169.231L100.117 168.724L97.9338 175.694C97.047 174.807 95.9367 174.173 94.7146 173.867C91.9948 173.025 88.716 174.523 87.5237 178.34C86.3985 181.896 87.8739 184.661 90.9441 185.623C92.2258 186.062 93.6267 186.018 94.8711 185.481L94.6625 186.502L97.2929 187.33L102.971 169.231ZM92.2556 183.945C90.9739 183.55 89.5729 182.291 90.5342 179.22C91.4955 176.148 93.4926 175.507 94.7743 175.91C95.7653 176.208 96.6596 176.745 97.3749 177.483L95.4226 183.707C94.424 184.139 93.3063 184.221 92.2556 183.945Z" fill="#BCB4A4"/>
<path d="M83.1644 180.636V180.621C83.5743 179.667 83.1272 178.571 82.1734 178.169C82.0839 178.116 81.9871 178.079 81.8902 178.042C80.9438 177.706 79.9155 178.198 79.5801 179.145C79.2448 180.092 79.7366 181.12 80.683 181.456C81.5996 181.918 82.7248 181.553 83.1942 180.636" fill="#BCB4A4"/>
<path d="M74.0881 164.028L73.2386 167.442L69.1848 170.379L71.3235 162.224L69.006 160.719L66.0178 173.085L67.3219 173.935L72.5679 170.148L71.0552 176.365L72.3593 177.215L82.7395 169.664L80.7201 168.344L74.2445 173.383L76.3087 165.474L74.0881 164.028Z" fill="#BCB4A4"/>
<path d="M62.0536 153.838L60.5484 157.028L55.9953 159.101L59.6988 151.527L57.7241 149.597L52.3589 161.136L53.4692 162.224L59.3561 159.54L56.6436 165.34L57.7614 166.428L69.4308 161.076L67.7095 159.384L60.3621 163.044L63.9538 155.702L62.0536 153.838Z" fill="#BCB4A4"/>
<path d="M52.2546 141.509L50.1532 144.334L45.2872 145.482L50.3916 138.781L48.8342 136.5L41.3154 146.757L42.1947 148.046L48.4915 146.571L44.706 151.721L45.5778 153.011L58.0669 150.044L56.7107 148.046L48.797 150.201L53.7449 143.701L52.2546 141.509Z" fill="#BCB4A4"/>
<path d="M162.056 120.317C133.292 107.936 43.4168 129.262 29.415 116.635C28.491 115.629 19.3179 107.861 18.5131 106.632C14.6307 100.966 12.6933 94.0042 17.3804 88.9876C26.9857 78.7158 43.1038 76.7777 53.8045 85.7227C57.21 90.1951 55.2129 96.2032 53.7375 102.234C50.0116 116.799 30.7637 124.887 17.9691 116.635C16.054 115.39 14.2581 113.981 12.589 112.423C6.79896 106.207 3.40842 98.2605 8.9078 92.5283C17.3208 83.6281 29.4522 86.8631 40.7789 91.7158C41.226 91.9021 41.6507 92.1332 42.0531 92.409C47.1948 99.811 41.5539 117.119 32.038 117.119C25.1377 117.119 17.3953 115.256 12.5815 111.238C10.5844 108.868 9.61572 105.812 9.87653 102.726C10.8527 90.7467 36.4047 86.8631 36.4122 86.8631C38.2378 87.2731 39.9443 88.1005 41.3974 89.2708C44.8252 93.4973 45.8684 99.8781 44.1694 105.469C41.0993 115.666 27.1869 116.65 17.6412 111.782C16.1807 111.082 14.7947 110.232 13.5055 109.24C12.2983 107.727 11.7991 105.767 12.1419 103.859C13.6322 96.0914 20.2344 92.6774 27.9992 91.7158C32.0305 91.1567 36.986 92.2227 40.0933 94.5111C41.0993 95.8976 41.4123 97.6716 40.9354 99.319C40.8161 99.7513 40.682 100.169 40.5255 100.579H42.761C40.3765 109.36 22.2241 114.607 15.2939 110.269C14.7872 109.39 14.5339 108.383 14.5488 107.369C14.5488 96.0094 37.9025 97.2244 45.0338 97.8058C44.4451 103.665 40.9726 109.151 35.0932 109.151C29.2138 109.151 22.8873 107.25 18.759 103.851C16.8663 101.622 16.218 98.5959 17.0227 95.7857C20.9051 81.7123 40.3169 77.3368 52.7911 84.6045C53.2605 84.8878 53.7151 85.2009 54.1548 85.5363C56.6734 88.749 57.3515 93.1023 56.5095 97.5449C53.3798 112.945 24.3329 123.523 13.4906 115.278C12.4474 113.877 11.7842 112.23 11.5457 110.5C8.79602 92.3718 46.4869 79.4314 46.4869 79.4314C47.4035 79.9532 48.2679 80.5644 49.0652 81.2502C55.2502 88.5701 54.7583 100.773 48.4244 108.592C41.4943 117.03 29.251 125.23 21.4342 118.446C16.0168 112.826 12.5442 108.666 8.93016 101.302C4.56344 92.5656 11.5234 83.1808 19.9289 78.3282C28.9306 73.2221 40.1827 74.4595 47.8655 81.3918C48.8491 82.5025 49.7359 83.7026 50.5034 84.9773C57.4559 96.3075 47.9177 111.357 35.5999 116.374C26.1735 120.168 12.6709 119.632 5.63649 113.84C3.84062 111.633 2.87934 108.868 2.92406 106.02C2.94641 93.3631 31.9262 91.7381 31.9262 91.7381C32.8279 92.2227 33.6848 92.7892 34.4822 93.4302C39.2587 99.2892 38.3943 108.271 37.746 117.142C29.9217 117.142 18.2746 117.358 13.3416 114.339C12.8572 113.348 12.7902 112.2 13.1627 111.156C15.8156 102.524 32.3063 101.414 38.2229 101.294C36.5239 107.258 24.4223 111.73 19.3924 109.494C19.221 109.039 19.139 108.562 19.1465 108.078C19.1465 103.605 27.3434 103.158 31.7027 103.441C27.567 110.701 14.6903 113.37 12.6709 114.548L14.6158 116.493C16.7694 115.234 31.2779 112.282 34.348 103.873V103.836L32.3733 101.898C31.8741 101.399 17.1792 100.124 17.1792 106.14C17.142 107.086 17.4922 108.011 18.1554 108.689L20.1003 110.634C24.3702 114.913 41.1664 108.778 40.3169 101.287L38.372 99.3414C38.1931 99.3414 14.4295 98.6929 11.1955 109.218C10.6441 110.687 11.0166 112.341 12.1419 113.437L14.0942 115.383C18.0585 119.341 31.1363 119.11 39.6686 119.11C40.3616 109.703 41.2856 100.184 35.4807 94.3769L33.5358 92.4314C32.4851 91.3804 31.2779 90.5008 29.959 89.8075C29.959 89.8075 1.00151 91.4176 1.00151 104.037C0.949345 107.347 2.2534 110.537 4.6156 112.856L6.59031 114.794C13.2522 121.502 27.6787 122.248 37.597 118.275C49.8924 113.258 59.4306 98.2083 52.5005 86.8781C51.4945 85.2232 50.2948 83.6951 48.9236 82.3236L46.9787 80.3781C39.378 72.8345 27.4552 70.8666 17.9915 76.3677C9.571 81.2502 2.61853 90.6051 6.98525 99.3414C10.8676 107.273 14.5935 111.477 20.7486 117.775L20.8306 117.865L22.7755 119.81C30.5476 127.593 43.2603 119.207 50.3469 110.5C56.979 102.301 57.21 89.3081 50.0637 82.1745L48.1188 80.229C47.0458 79.163 45.8386 78.2536 44.5197 77.5231C44.5197 77.5231 6.82877 90.4411 9.57101 108.57C9.86162 110.761 10.8602 112.804 12.4101 114.376L14.3476 116.322C24.2211 126.199 55.1831 115.435 58.4246 99.5054C59.3635 94.5707 58.4246 89.7404 55.1607 86.4755L53.2158 84.53C52.5005 83.8144 51.6882 83.1883 50.8164 82.6739C38.3645 75.3912 18.9527 79.7594 15.048 93.8551C14.0644 97.4704 15.2865 100.564 17.7232 102.986L19.6681 104.932C23.6622 108.927 30.9202 111.171 37.053 111.171C43.5211 111.171 47.0831 104.537 47.0831 98.0667L45.1381 96.1212C44.46 96.1212 12.6188 92.2376 12.6188 105.506C12.5741 106.982 13.1329 108.413 14.1762 109.464L16.1211 111.41C22.3284 117.626 44.9742 111.134 44.9742 100.653L43.0293 98.7078C29.6162 98.7078 16.0168 97.0902 10.1895 109.233L12.1344 111.171C23.625 116.836 39.4748 113.407 42.8728 101.302C43.4541 99.1997 42.7983 96.9486 41.1813 95.4876L39.2364 93.542C36.3153 90.6126 30.5924 89.1739 26.0468 89.815C18.2821 90.7915 11.65 94.1906 10.1895 101.958C9.79456 104.328 10.6366 106.728 12.425 108.331L14.3699 110.277C15.9199 111.708 17.6785 112.886 19.5861 113.773C29.1318 118.625 43.0442 117.656 46.1143 107.459C47.9847 101.391 46.5689 94.3918 42.3885 90.2324L40.4436 88.2943C38.8116 86.647 36.7475 85.4916 34.4896 84.9773C34.4896 84.9773 8.93016 88.8609 7.96143 100.84C7.67081 104.38 8.99722 107.869 11.5681 110.321L13.513 112.267C18.1852 116.941 26.5833 119.095 34.0053 119.095C44.0204 119.095 49.7433 99.9153 43.1262 93.3035L41.1813 91.358C40.5106 90.6946 39.7207 90.1653 38.8563 89.8001C27.5297 84.9773 15.3983 81.7049 6.98525 90.6051C1.19525 96.6504 5.2639 105.133 11.6053 111.477L13.5502 113.422C15.4877 115.375 17.6263 117.127 19.9289 118.64C32.7161 126.892 51.9714 118.804 55.6973 104.239C57.277 97.776 59.4604 91.3133 54.9521 86.7961L53.0072 84.8505L52.6271 84.4927C41.9488 74.8024 25.2867 76.5615 15.4206 87.0793C10.7335 92.0959 12.6709 99.0581 16.5533 104.723C17.6114 106.281 18.8112 107.735 20.1376 109.069L30.3763 117.671C44.3557 131.648 133.27 110.537 164.001 122.248L162.056 120.302" fill="#BCB4A4" fill-opacity="0.5"/>
<path d="M162.056 120.317C133.292 107.936 43.4168 129.262 29.415 116.635C28.491 115.629 19.3179 107.861 18.5131 106.632C14.6307 100.966 12.6933 94.0042 17.3804 88.9876C26.9857 78.7158 43.1038 76.7777 53.8045 85.7227C57.21 90.1951 55.2129 96.2032 53.7375 102.234C50.0116 116.799 30.7637 124.887 17.9691 116.635C16.054 115.39 14.2581 113.981 12.589 112.423C6.79896 106.207 3.40842 98.2605 8.9078 92.5283C17.3208 83.6281 29.4522 86.8631 40.7789 91.7158C41.226 91.9021 41.6507 92.1332 42.0531 92.409C47.1948 99.811 41.5539 117.119 32.038 117.119C25.1377 117.119 17.3953 115.256 12.5815 111.238C10.5844 108.868 9.61572 105.812 9.87653 102.726C10.8527 90.7467 36.4047 86.8631 36.4122 86.8631C38.2378 87.2731 39.9443 88.1005 41.3974 89.2708C44.8252 93.4973 45.8684 99.8781 44.1694 105.469C41.0993 115.666 27.1869 116.65 17.6412 111.782C16.1807 111.082 14.7947 110.232 13.5055 109.24C12.2983 107.727 11.7991 105.767 12.1419 103.859C13.6322 96.0914 20.2344 92.6774 27.9992 91.7158C32.0305 91.1567 36.9859 92.2227 40.0933 94.5111C41.0993 95.8976 41.4123 97.6716 40.9354 99.319C40.8161 99.7513 40.682 100.169 40.5255 100.579H42.761C40.3765 109.36 22.2241 114.607 15.2939 110.269C14.7872 109.39 14.5339 108.383 14.5488 107.369C14.5488 96.0094 37.9025 97.2244 45.0338 97.8058C44.4451 103.665 40.9726 109.151 35.0932 109.151C29.2138 109.151 22.8873 107.25 18.759 103.851C16.8663 101.622 16.218 98.5959 17.0227 95.7857C20.9051 81.7123 40.3169 77.3368 52.7911 84.6045C53.2605 84.8878 53.7151 85.2009 54.1548 85.5363C56.6734 88.749 57.3515 93.1023 56.5095 97.5449C53.3798 112.945 24.3329 123.523 13.4906 115.278C12.4474 113.877 11.7842 112.23 11.5457 110.5C8.79602 92.3718 46.4869 79.4314 46.4869 79.4314C47.4035 79.9532 48.2679 80.5644 49.0652 81.2502C55.2502 88.5701 54.7583 100.773 48.4244 108.592C41.4943 117.03 29.251 125.23 21.4342 118.446C16.0168 112.826 12.5442 108.666 8.93016 101.302C4.56344 92.5656 11.5234 83.1808 19.9289 78.3282C28.9306 73.2221 40.1827 74.4595 47.8655 81.3918C48.8491 82.5025 49.7359 83.7026 50.5034 84.9773C57.4559 96.3075 47.9177 111.357 35.5999 116.374C26.1735 120.168 12.6709 119.632 5.63649 113.84C3.84062 111.633 2.87934 108.868 2.92406 106.02C2.94641 93.3631 31.9262 91.7381 31.9262 91.7381C32.8279 92.2227 33.6848 92.7892 34.4822 93.4302C39.2587 99.2892 38.3943 108.271 37.746 117.142C29.9217 117.142 18.2746 117.358 13.3416 114.339C12.8572 113.348 12.7902 112.2 13.1627 111.156C15.8156 102.524 32.3063 101.414 38.2229 101.294C36.5239 107.258 24.4223 111.73 19.3924 109.494C19.221 109.039 19.139 108.562 19.1465 108.078C19.1465 103.605 27.3434 103.158 31.7027 103.441C27.567 110.701 14.6903 113.37 12.6709 114.548L14.6158 116.493C16.7694 115.234 31.2779 112.282 34.348 103.873V103.836L32.3733 101.898C31.8741 101.399 17.1792 100.124 17.1792 106.14C17.142 107.086 17.4922 108.011 18.1554 108.689L20.1003 110.634C24.3702 114.913 41.1664 108.778 40.3169 101.287L38.372 99.3414C38.1931 99.3414 14.4295 98.6929 11.1955 109.218C10.6441 110.687 11.0166 112.341 12.1419 113.437L14.0942 115.383C18.0585 119.341 31.1363 119.11 39.6686 119.11C40.3616 109.703 41.2856 100.184 35.4807 94.3769L33.5358 92.4314C32.4851 91.3804 31.2779 90.5008 29.959 89.8075C29.959 89.8075 1.00151 91.4176 1.00151 104.037C0.949345 107.347 2.2534 110.537 4.6156 112.856L6.59031 114.794C13.2522 121.502 27.6787 122.248 37.597 118.275C49.8924 113.258 59.4306 98.2083 52.5005 86.8781C51.4945 85.2232 50.2948 83.6951 48.9236 82.3236L46.9787 80.3781C39.378 72.8345 27.4552 70.8666 17.9915 76.3677C9.571 81.2502 2.61853 90.6051 6.98525 99.3414C10.8676 107.273 14.5935 111.477 20.7486 117.775L20.8306 117.865L22.7755 119.81C30.5476 127.593 43.2603 119.207 50.3469 110.5C56.979 102.301 57.21 89.3081 50.0637 82.1745L48.1188 80.229C47.0458 79.163 45.8386 78.2536 44.5197 77.5231C44.5197 77.5231 6.82877 90.4411 9.57101 108.57C9.86162 110.761 10.8602 112.804 12.4101 114.376L14.3476 116.322C24.2211 126.199 55.1831 115.435 58.4246 99.5054C59.3635 94.5707 58.4246 89.7404 55.1607 86.4755L53.2158 84.53C52.5005 83.8144 51.6882 83.1883 50.8164 82.6739C38.3645 75.3912 18.9527 79.7594 15.048 93.8551C14.0644 97.4704 15.2865 100.564 17.7232 102.986L19.6681 104.932C23.6622 108.927 30.9202 111.171 37.053 111.171C43.5211 111.171 47.0831 104.537 47.0831 98.0667L45.1382 96.1212C44.46 96.1212 12.6188 92.2376 12.6188 105.506C12.5741 106.982 13.1329 108.413 14.1762 109.464L16.1211 111.41C22.3284 117.626 44.9742 111.134 44.9742 100.653L43.0293 98.7078C29.6162 98.7078 16.0168 97.0902 10.1895 109.233L12.1344 111.171C23.625 116.836 39.4748 113.407 42.8728 101.302C43.4541 99.1997 42.7983 96.9486 41.1813 95.4876L39.2364 93.542C36.3153 90.6126 30.5924 89.1739 26.0468 89.815C18.2821 90.7915 11.65 94.1906 10.1895 101.958C9.79456 104.328 10.6366 106.728 12.425 108.331L14.3699 110.277C15.9199 111.708 17.6785 112.886 19.5861 113.773C29.1318 118.625 43.0442 117.656 46.1143 107.459C47.9847 101.391 46.5689 94.3918 42.3885 90.2324L40.4436 88.2943C38.8116 86.647 36.7475 85.4916 34.4896 84.9773C34.4896 84.9773 8.93016 88.8609 7.96143 100.84C7.67081 104.38 8.99722 107.869 11.5681 110.321L13.513 112.267C18.1852 116.941 26.5833 119.095 34.0053 119.095C44.0204 119.095 49.7433 99.9153 43.1262 93.3035L41.1813 91.358C40.5106 90.6946 39.7207 90.1653 38.8563 89.8001C27.5297 84.9773 15.3983 81.7049 6.98525 90.6051C1.19525 96.6504 5.2639 105.133 11.6053 111.477L13.5502 113.422C15.4877 115.375 17.6263 117.127 19.9289 118.64C32.7161 126.892 51.9714 118.804 55.6973 104.239C57.277 97.776 59.4604 91.3133 54.9521 86.7961L53.0072 84.8505L52.6271 84.4927C41.9488 74.8024 25.2867 76.5615 15.4206 87.0793C10.7335 92.0959 12.6709 99.0581 16.5533 104.723C17.6114 106.281 18.8112 107.735 20.1376 109.069L30.3763 117.671C44.3557 131.648 133.27 110.537 164.001 122.248L162.056 120.317Z" stroke="#BCB4A4" stroke-miterlimit="10"/>
</svg>
