<svg width="192" height="192" viewBox="0 0 192 192" fill="none" xmlns="http://www.w3.org/2000/svg">
<path d="M107.8 70.2645C107.497 70.0607 107.149 69.9265 106.752 69.8519C106.354 69.7824 105.941 69.7476 105.514 69.7476H104.097V75.4143H105.514C105.941 75.4143 106.354 75.3795 106.752 75.3099C107.149 75.2403 107.497 75.1011 107.8 74.8973C108.104 74.6935 108.342 74.4052 108.526 74.0374C108.71 73.6646 108.8 73.1824 108.8 72.5809C108.8 71.9795 108.71 71.4973 108.526 71.1245C108.342 70.7517 108.099 70.4683 107.8 70.2645Z" fill="#BCB4A4"/>
<path d="M138.958 142.228H53.4792C64.7282 152.572 79.7352 158.89 96.2185 158.89C112.702 158.89 127.709 152.572 138.958 142.228Z" fill="#BCB4A4"/>
<path d="M159.378 95.7302C159.378 60.8499 131.099 32.5708 96.2185 32.5708C61.3382 32.5708 33.0591 60.8499 33.0591 95.7302C33.0591 96.62 33.0839 97.5048 33.1187 98.3846H159.318C159.353 97.5048 159.378 96.62 159.378 95.7302ZM68.9087 83.9394C68.8938 84.014 68.7745 84.0686 68.7 84.1333C68.6453 84.0587 68.5409 83.9841 68.5409 83.9096C68.5409 83.5119 68.2924 83.4473 67.9742 83.4572C67.9245 83.4572 67.8698 83.4473 67.8201 83.4572C66.9204 83.6113 66.4432 83.0596 66.0455 82.3885C66.0008 82.3189 65.9909 82.14 66.0207 82.125C66.4382 81.9063 66.2195 81.7224 66.0356 81.4739C65.7224 81.0513 65.5485 80.5692 65.5833 80.0323C65.5932 79.8832 65.618 79.7192 65.6876 79.5899C65.8517 79.2917 66.1648 79.2966 66.3438 79.5949C66.5277 79.9031 66.6768 80.2361 66.8558 80.5493C67.1391 81.0513 67.507 81.4142 68.1532 81.285C68.2526 81.2651 68.357 81.275 68.4614 81.285C68.9584 81.3397 69.0827 81.4639 69.1225 81.956C69.1374 82.135 69.1225 82.3139 69.1225 82.4979L69.1921 82.5078C69.0976 82.985 69.0131 83.4622 68.9087 83.9394ZM90.1938 78.7896C90.1938 78.8145 90.1938 78.8443 90.1938 78.8642C89.6272 80.3455 89.6669 82.0057 88.8169 83.4075C88.3696 84.1432 87.8526 84.7397 86.9529 84.8938C86.7789 84.9236 86.595 84.9932 86.4558 85.0976C85.7549 85.6295 84.9297 85.6991 84.1046 85.7239C82.8171 85.7587 81.9969 85.0578 81.6788 83.8102C81.5695 83.3727 81.301 82.9701 81.0972 82.5575C80.8586 82.0704 80.8586 82.0604 81.306 81.7671C81.3905 81.7125 81.485 81.6628 81.5695 81.6031C82.3449 81.0414 82.4145 80.763 81.9621 79.9279C81.7981 79.6297 81.6291 79.3662 81.7981 78.9934C81.9174 78.73 81.7584 78.4864 81.5247 78.3373C81.2911 78.1832 81.2911 78.0539 81.47 77.8452C81.8031 77.4425 81.8031 77.4276 81.5098 76.9604C81.3656 76.7367 81.4004 76.5826 81.5893 76.4285C81.6888 76.3489 81.7882 76.2595 81.8677 76.16C82.1461 75.8171 82.166 75.6232 81.9224 75.2504C81.7981 75.0565 81.6341 74.8875 81.47 74.7284C81.306 74.5644 81.1171 74.4302 80.9481 74.2662C80.1975 73.5454 80.1329 73.1626 80.5703 72.2082C80.6449 72.0442 80.7194 71.8802 80.794 71.7161C81.0127 71.234 81.1271 70.7518 80.9481 70.2199C80.6996 69.4643 80.4958 68.6939 80.2572 67.9333C80.108 67.4462 79.77 67.1479 79.263 67.0734C78.0402 66.8894 76.8223 66.7005 75.5945 66.5465C74.829 66.452 74.0536 66.4222 73.2334 66.3625C72.4082 66.4371 71.5333 66.4818 70.6634 66.5962C69.0082 66.8149 67.6859 67.6699 66.5029 68.8032C65.6429 69.6284 65.0116 70.5828 64.7581 71.7559C64.5791 72.586 64.44 73.4161 64.5891 74.2811C64.7829 75.3945 64.9072 76.5229 65.0514 77.6463C65.1259 78.2279 64.6786 78.5112 64.3008 78.7846C64.0174 78.9934 63.6496 79.0928 63.3116 79.2171C62.3025 79.5899 61.9048 80.1815 61.8303 81.2452C61.711 82.9005 62.3721 84.3172 63.0978 85.7239C63.2967 86.1117 63.5601 86.4696 63.7639 86.8573C63.9777 87.2649 64.2312 87.6775 64.3405 88.1199C64.4946 88.7363 64.7233 89.1787 65.4391 89.1836C65.6131 89.1836 65.6379 89.3129 65.5783 89.4521C65.4192 89.805 65.2353 90.148 65.106 90.5108C64.6935 91.679 64.3405 92.867 64.3405 94.1246C64.3405 94.5124 64.2461 94.5621 63.9578 94.3235C63.4209 93.8811 62.8841 93.4337 62.4019 92.9366C59.9662 90.4114 58.1767 87.4786 57.0434 84.1581C56.2182 81.7423 55.8305 79.2469 56.0144 76.6969C56.2381 73.5752 57.272 70.7269 59.0814 68.1471C60.7566 65.766 62.9089 63.9119 65.2253 62.2119C66.4333 61.3221 67.7257 60.5715 69.0529 59.8756C69.4108 59.6867 69.724 59.4034 70.0272 59.125C70.3503 58.8317 70.6386 58.4937 70.9418 58.1805C71.2947 57.8177 71.7123 57.6785 72.2094 57.8028C72.3585 57.8425 72.5126 57.8674 72.6667 57.8873C73.0992 57.9419 73.4421 57.8028 73.6012 57.3753C73.8 56.8484 73.9989 56.3165 74.1381 55.7747C74.4264 54.6811 74.5506 53.5477 74.998 52.4889C75.4454 51.4351 76.2805 50.7591 77.1902 50.1676C77.6127 49.8942 77.7966 49.9886 77.891 50.4757C77.9407 50.7193 77.9407 50.9927 77.8811 51.2363C77.7966 51.6041 77.7966 51.9471 77.9656 52.2901C78.3633 53.1053 78.3931 53.9255 78.0054 54.7556C77.9606 54.8501 77.9308 54.9495 77.9059 55.0489C77.8364 55.3323 77.9059 55.4317 78.2092 55.4118C78.5174 55.3919 78.8156 55.3124 79.1238 55.2726C79.3177 55.2477 79.4221 55.2925 79.2829 55.5162C79.1735 55.6951 79.2928 55.8045 79.4569 55.8592C79.5563 55.894 79.6607 55.8989 79.7551 55.9337C80.8288 56.3016 80.8835 56.3463 81.5297 55.4466C82.1759 54.5518 82.6978 53.5676 83.2695 52.6231C83.3242 52.5337 83.349 52.4293 83.3987 52.3448C83.6323 51.9372 83.9008 51.9173 84.1394 52.3348C84.7756 53.4284 84.9148 54.6165 84.716 55.8492C84.6365 56.3314 84.5321 56.8136 84.4774 57.2957C84.3979 58.0066 84.1344 58.5832 83.4932 58.946C83.3391 59.0355 83.1899 59.1449 83.0557 59.2642C82.5934 59.6966 82.5139 60.2484 82.837 60.8002C83.4435 61.8242 84.1294 62.7835 84.9993 63.6137C86.1526 64.7172 86.1376 64.7321 85.6505 66.2084C85.6008 66.3576 85.566 66.5067 85.5064 66.6508C85.1087 67.6301 85.2628 68.5248 85.73 69.4693C86.3862 70.7816 86.923 72.1486 87.4847 73.5106C87.9868 74.7384 88.7026 75.8369 89.483 76.9007C89.9006 77.4674 90.2684 78.0539 90.2088 78.8095L90.1938 78.7896ZM97.8092 85.4207H94.0661V66.5166H97.8092V85.4207ZM112.105 74.8179C111.892 75.5486 111.549 76.1998 111.081 76.7665C110.614 77.3332 110.003 77.7855 109.257 78.1285C108.511 78.4715 107.602 78.6455 106.538 78.6455H104.097V85.4257H100.354V66.5216H106.538C107.602 66.5216 108.506 66.6956 109.257 67.0386C110.003 67.3816 110.609 67.8389 111.081 68.4006C111.549 68.9672 111.892 69.6085 112.105 70.3342C112.319 71.06 112.428 71.8106 112.428 72.586C112.428 73.3615 112.324 74.0922 112.105 74.8229V74.8179ZM125.049 70.0111H120.943V85.4207H117.2V70.0111H113.094V66.5166H125.049V70.0111ZM137.352 85.4207H133.967V77.194C133.967 76.0656 133.808 75.2206 133.49 74.6638C133.172 74.1071 132.784 73.8287 132.073 73.8287C131.218 73.8287 130.706 74.1319 130.294 74.7434C129.881 75.3548 129.672 76.3539 129.672 77.7507V85.4257H126.287V66.5216H129.672V73.1477H129.742C130.169 72.3524 130.726 71.7261 131.203 71.4129C131.775 71.0401 132.391 70.8711 133.028 70.8711C133.932 70.8711 134.494 71.0103 135.076 71.2837C135.657 71.5571 136.109 71.9348 136.447 72.422C136.781 72.9091 137.014 73.5006 137.148 74.1966C137.283 74.8925 137.352 75.6679 137.352 76.513V85.4307V85.4207Z" fill="#BCB4A4"/>
<path d="M26.7312 129.551C26.3733 129.417 26.1198 129.184 25.9657 128.85C25.8862 128.686 25.8464 128.512 25.8414 128.338C25.8365 128.164 25.8613 127.991 25.921 127.826C25.9806 127.662 26.0701 127.508 26.1894 127.369C26.3087 127.23 26.4529 127.121 26.6318 127.036C26.7859 126.962 26.9549 126.927 27.1339 126.927C27.3128 126.927 27.4868 126.952 27.6508 127.001C27.8198 127.051 27.969 127.136 28.1081 127.25C28.2473 127.364 28.3517 127.503 28.4312 127.667C28.5157 127.841 28.5605 128.02 28.5655 128.199C28.5754 128.378 28.5456 128.552 28.4909 128.716C28.4312 128.88 28.3418 129.034 28.2225 129.174C28.1032 129.313 27.964 129.422 27.795 129.502C27.447 129.666 27.0941 129.681 26.7362 129.546L26.7312 129.551Z" fill="#BCB4A4"/>
<path d="M15.4373 115.663L25.4883 108.56L26.1593 111.105L23.8976 112.601L24.9962 116.771L27.7102 116.995L28.3614 119.461L16.1033 118.178L15.4422 115.663H15.4373ZM22.2374 113.724L18.5192 116.205L18.5291 116.235L23.0029 116.612L22.2423 113.724H22.2374Z" fill="#BCB4A4"/>
<path d="M23.679 99.1595C24.519 99.9548 25.0111 101.118 25.1553 102.649C25.3044 104.2 25.0459 105.443 24.3749 106.362C23.7088 107.287 22.5904 107.824 21.0245 107.973L13.8914 108.659L13.6478 106.134L20.781 105.448C21.0892 105.418 21.3924 105.363 21.6906 105.279C21.9839 105.194 22.2374 105.06 22.4561 104.866C22.6749 104.672 22.8339 104.414 22.9483 104.096C23.0626 103.777 23.0974 103.36 23.0477 102.848C22.9632 101.948 22.6997 101.347 22.2672 101.043C21.8298 100.74 21.1886 100.631 20.3286 100.71L13.1955 101.396L12.9519 98.8712L20.0851 98.1852C21.636 98.0361 22.8339 98.3592 23.674 99.1545L23.679 99.1595Z" fill="#BCB4A4"/>
<path d="M21.7305 93.4234C22.0088 93.2991 22.2375 93.1252 22.4164 92.9064C22.5954 92.6877 22.7346 92.4193 22.834 92.1161C22.9334 91.8129 22.993 91.4898 23.0129 91.1567C23.0278 90.933 23.0229 90.6895 22.998 90.426C22.9781 90.1675 22.9185 89.919 22.824 89.6903C22.7296 89.4567 22.5954 89.2628 22.4164 89.0988C22.2375 88.9347 22.0039 88.8502 21.7106 88.8304C21.3974 88.8105 21.1389 88.895 20.9351 89.0839C20.7313 89.2728 20.5524 89.5213 20.4032 89.8345C20.2541 90.1476 20.1199 90.5055 20.0006 90.9082C19.8813 91.3108 19.7471 91.7184 19.6029 92.131C19.4687 92.5535 19.3146 92.9661 19.1307 93.3638C18.9518 93.7614 18.7281 94.1144 18.4596 94.4225C18.1912 94.7307 17.8681 94.9743 17.4854 95.1483C17.1026 95.3272 16.6503 95.3968 16.1234 95.367C15.5318 95.3322 15.0248 95.1731 14.6072 94.8948C14.1897 94.6164 13.8467 94.2635 13.5783 93.841C13.3099 93.4135 13.1259 92.9412 13.0166 92.4193C12.9072 91.8974 12.8675 91.3754 12.8973 90.8585C12.9321 90.257 13.0365 89.6853 13.2005 89.1385C13.3695 88.5918 13.6131 88.1146 13.9412 87.702C14.2692 87.2894 14.6719 86.9713 15.154 86.7476C15.6362 86.5239 16.2128 86.4294 16.8789 86.4692L16.7348 88.9198C16.3918 88.9198 16.0985 88.9745 15.8698 89.0888C15.6412 89.2032 15.4523 89.3523 15.3081 89.5462C15.169 89.745 15.0596 89.9687 14.995 90.2321C14.9254 90.4906 14.8806 90.7789 14.8657 91.0871C14.8558 91.2909 14.8657 91.4947 14.8956 91.7035C14.9254 91.9123 14.99 92.1012 15.0894 92.2751C15.1888 92.4491 15.3131 92.5933 15.4672 92.7126C15.6213 92.8319 15.8251 92.8965 16.0687 92.9114C16.2924 92.9263 16.4813 92.8915 16.6254 92.817C16.7696 92.7374 16.9087 92.5784 17.043 92.3298C17.1772 92.0863 17.3164 91.7433 17.4605 91.3058C17.6047 90.8684 17.7886 90.2918 18.0172 89.5859C18.0719 89.3722 18.1664 89.0789 18.3055 88.7061C18.4398 88.3333 18.6436 87.9654 18.912 87.6026C19.1804 87.2397 19.5333 86.9365 19.9608 86.6879C20.3933 86.4394 20.9302 86.335 21.5714 86.3698C22.0983 86.3996 22.5805 86.5338 23.0179 86.7625C23.4553 86.9911 23.8281 87.3192 24.1314 87.7417C24.4346 88.1643 24.6583 88.6763 24.8074 89.2877C24.9565 89.8941 25.0062 90.59 24.9565 91.3754C24.9168 92.0117 24.8024 92.6181 24.6135 93.2047C24.4246 93.7913 24.1463 94.3032 23.7884 94.7407C23.4305 95.1781 22.9831 95.5161 22.4512 95.7547C21.9193 95.9933 21.298 96.0878 20.5921 96.0331L20.7363 93.5825C21.124 93.6073 21.4571 93.5576 21.7305 93.4333V93.4234Z" fill="#BCB4A4"/>
<path d="M26.582 78.3369C26.6864 78.9234 26.6814 79.4901 26.5621 80.0369C26.3732 80.8968 26.0501 81.6425 25.5978 82.2638C25.1454 82.8852 24.6036 83.3723 23.9723 83.7302C23.341 84.0881 22.6451 84.3118 21.8796 84.4063C21.1141 84.5007 20.3237 84.456 19.5035 84.277C18.6634 84.0881 17.9128 83.7899 17.2468 83.3773C16.5856 82.9647 16.0339 82.4627 15.6064 81.8711C15.1739 81.2796 14.8856 80.6036 14.7315 79.848C14.5774 79.0924 14.5973 78.2822 14.7912 77.4222C14.9204 76.8456 15.1292 76.3038 15.4225 75.8017C15.7157 75.2997 16.0786 74.8672 16.5111 74.5044C16.9435 74.1415 17.4406 73.8731 17.9974 73.6991C18.5541 73.5251 19.1605 73.4754 19.8167 73.5549L19.2898 75.9161C18.6286 75.921 18.0918 76.105 17.6842 76.4529C17.2766 76.8058 17.0032 77.2781 16.8739 77.8746C16.7497 78.4313 16.7546 78.9284 16.8839 79.3658C17.0131 79.8033 17.2318 80.181 17.54 80.5041C17.8482 80.8272 18.221 81.0957 18.6585 81.3044C19.0959 81.5132 19.5632 81.6773 20.0553 81.7866C20.5275 81.891 20.9997 81.9407 21.472 81.9258C21.9442 81.9159 22.3816 81.8264 22.7942 81.6673C23.2068 81.5033 23.5597 81.2547 23.8629 80.9118C24.1662 80.5688 24.3749 80.1214 24.4992 79.5647C24.6831 78.7445 24.6135 78.0684 24.3004 77.5266C23.9872 76.9898 23.4404 76.5921 22.6699 76.3436L22.1182 78.8339L20.274 78.4263L21.3228 73.6991L27.4071 75.0511L27.0592 76.6269L25.727 76.5971C26.1943 77.1637 26.4826 77.7404 26.5919 78.3269L26.582 78.3369Z" fill="#BCB4A4"/>
<path d="M20.5722 60.8096L22.5506 61.595L20.2988 67.2518L22.5954 68.1664L24.6582 62.9769L26.4875 63.7026L24.4246 68.8921L27.0492 69.936L29.3457 64.1599L31.3241 64.9453L28.0881 73.0776L17.376 68.8176L20.5623 60.8096H20.5722Z" fill="#BCB4A4"/>
<path d="M24.9514 52.8168C25.2298 52.3446 25.5281 51.937 25.8412 51.599C26.1544 51.261 26.4874 51.0074 26.8404 50.8384C27.1933 50.6744 27.576 50.6048 27.9787 50.6396C28.3863 50.6744 28.8187 50.8235 29.281 51.0969C29.7831 51.3902 30.1311 51.7531 30.3299 52.1756C30.5287 52.5981 30.6033 53.0952 30.5585 53.6668C31.0954 53.1598 31.672 52.8864 32.2934 52.8417C32.9097 52.8019 33.5311 52.961 34.1525 53.3288C34.6545 53.6221 35.0273 53.975 35.2808 54.3876C35.5343 54.8002 35.6785 55.2376 35.7133 55.6999C35.7531 56.1672 35.7034 56.6444 35.5642 57.1315C35.425 57.6187 35.2262 58.0859 34.9627 58.5283L32.1244 63.3401L22.1926 57.4894L24.9465 52.8168H24.9514ZM28.8088 55.4663C29.0375 55.0786 29.1369 54.7008 29.0971 54.3429C29.0574 53.985 28.8337 53.6818 28.4161 53.4332C28.1825 53.299 27.9687 53.2244 27.7749 53.2244C27.576 53.2244 27.3971 53.2642 27.2281 53.3537C27.0591 53.4432 26.91 53.5674 26.7708 53.7315C26.6316 53.8955 26.5073 54.0695 26.388 54.2683L25.1851 56.3113L27.5065 57.6783L28.8088 55.4663ZM33.0986 57.8274C33.2229 57.6137 33.3223 57.3999 33.3969 57.1763C33.4715 56.9575 33.5013 56.7438 33.4913 56.54C33.4814 56.3362 33.4168 56.1373 33.3024 55.9534C33.1881 55.7695 32.9992 55.5955 32.7407 55.4464C32.2287 55.1482 31.7814 55.0736 31.3936 55.2327C31.0059 55.3917 30.6729 55.7099 30.3945 56.1821L28.9927 58.5581L31.7167 60.1637L33.0937 57.8274H33.0986Z" fill="#BCB4A4"/>
<path d="M30.6729 44.5054L39.859 51.4695L38.3279 53.4877L29.1418 46.5235L30.6729 44.5054Z" fill="#BCB4A4"/>
<path d="M34.7541 39.6836L41.6089 46.1109L45.4513 42.0149L47.0072 43.4714L41.4299 49.4165L33.0193 41.5327L34.7541 39.6836Z" fill="#BCB4A4"/>
<path d="M44.8746 30.289C45.4562 29.8317 46.0726 29.4937 46.7238 29.2849C47.3749 29.0761 48.0261 29.0115 48.6872 29.091C49.3484 29.1755 49.9995 29.4141 50.6507 29.8068C51.2969 30.1995 51.9183 30.7761 52.5098 31.5267C53.0268 32.1878 53.4244 32.8639 53.6929 33.5548C53.9613 34.2458 54.0856 34.9317 54.0657 35.6028C54.0408 36.2788 53.8668 36.935 53.5388 37.5713C53.2107 38.2075 52.6987 38.7991 52.0078 39.3409L48.1007 42.4178L40.9675 33.361L44.8746 30.284V30.289ZM50.5513 37.78C50.8396 37.5514 51.0832 37.2879 51.277 36.9797C51.4759 36.6715 51.5952 36.3286 51.6349 35.9458C51.6747 35.563 51.625 35.1505 51.4759 34.7031C51.3317 34.2557 51.0583 33.7835 50.6656 33.2864C50.3077 32.8291 49.9349 32.4513 49.5571 32.1531C49.1793 31.8548 48.7866 31.656 48.3741 31.5516C47.9665 31.4472 47.539 31.4621 47.0966 31.5814C46.6542 31.7057 46.1869 31.9592 45.6948 32.3469L44.2731 33.4654L48.7668 39.1719L50.5414 37.7751L50.5513 37.78Z" fill="#BCB4A4"/>
<path d="M59.5932 20.899L60.6321 22.7581L55.3183 25.7307L56.5262 27.888L61.4026 25.159L62.362 26.8789L57.4856 29.6079L58.8675 32.0734L64.2907 29.0363L65.3296 30.8954L57.6944 35.1653L52.0674 25.1043L59.5883 20.894L59.5932 20.899Z" fill="#BCB4A4"/>
<path d="M62.8145 21.7191L62.054 19.7308L70.8722 16.3506L71.6328 18.3389L68.4067 19.5767L71.767 28.3502L69.4009 29.2549L66.0406 20.4813L62.8145 21.7191Z" fill="#BCB4A4"/>
<path d="M89.5029 23.419C88.7473 24.2939 87.604 24.8357 86.0829 25.0544C84.537 25.2732 83.2893 25.0694 82.3349 24.443C81.3805 23.8167 80.794 22.7281 80.5752 21.1722L79.5662 14.0739L82.0764 13.716L83.0855 20.8143C83.1303 21.1225 83.1998 21.4257 83.2943 21.714C83.3887 22.0024 83.5379 22.2509 83.7417 22.4597C83.9455 22.6635 84.2089 22.8176 84.532 22.917C84.8551 23.0164 85.2727 23.0313 85.7847 22.9568C86.6794 22.8275 87.271 22.5442 87.5543 22.0918C87.8376 21.6445 87.9221 20.9933 87.7979 20.1433L86.7888 13.0449L89.2991 12.687L90.3081 19.7854C90.5269 21.3313 90.2584 22.5392 89.5029 23.4141V23.419Z" fill="#BCB4A4"/>
<path d="M95.9151 12.5229L100.538 20.3719H100.568L100.757 12.6422L103.128 12.7019L102.849 24.2243L100.314 24.1646L95.7063 16.3356H95.6715L95.4827 24.0503L93.1116 23.9907L93.3899 12.4683L95.9101 12.5279L95.9151 12.5229Z" fill="#BCB4A4"/>
<path d="M112.14 14.0786C112.871 14.2178 113.527 14.4664 114.108 14.8193C114.69 15.1722 115.167 15.6246 115.54 16.1813C115.908 16.7331 116.156 17.3843 116.281 18.1348C116.405 18.8805 116.375 19.7255 116.196 20.665C116.037 21.4902 115.784 22.2308 115.441 22.887C115.098 23.5431 114.66 24.0849 114.133 24.5075C113.606 24.93 112.995 25.2282 112.299 25.3972C111.603 25.5662 110.823 25.5662 109.958 25.3972L105.076 24.4578L107.259 13.1392L112.14 14.0786ZM110.186 23.2697C110.544 23.3393 110.907 23.3493 111.265 23.2946C111.623 23.2449 111.966 23.1107 112.279 22.8919C112.592 22.6732 112.876 22.365 113.114 21.9574C113.358 21.5548 113.537 21.0428 113.656 20.4165C113.765 19.8448 113.81 19.3179 113.785 18.8407C113.765 18.3585 113.656 17.931 113.467 17.5533C113.278 17.1755 112.99 16.8623 112.607 16.6088C112.224 16.3553 111.722 16.1664 111.111 16.0471L109.336 15.7041L107.964 22.8373L110.181 23.2648L110.186 23.2697Z" fill="#BCB4A4"/>
<path d="M130.388 22.2109L125.184 19.8895L126.053 17.9409L134.34 21.6342L133.525 23.4635L124.865 27.6987L130.661 30.2835L129.791 32.2321L120.914 28.2753L121.729 26.446L130.388 22.2109Z" fill="#BCB4A4"/>
<path d="M144.644 27.9478L143.501 29.7472L138.366 26.4764L137.039 28.5592L141.751 31.5616L140.693 33.2218L135.98 30.2194L134.464 32.6005L139.708 35.9409L138.565 37.7403L131.183 33.0379L137.377 23.3149L144.649 27.9478H144.644Z" fill="#BCB4A4"/>
<path d="M152.274 34.2604C152.662 34.6034 152.955 34.9712 153.159 35.3689C153.358 35.7665 153.477 36.1742 153.507 36.5867C153.537 36.9993 153.482 37.4019 153.348 37.7897C153.214 38.1774 153 38.5403 152.707 38.8733C152.259 39.3803 151.762 39.7283 151.226 39.9122C150.684 40.0961 150.087 40.0713 149.431 39.8377L149.411 39.8625C149.59 40.1309 149.695 40.4043 149.729 40.6728C149.764 40.9412 149.754 41.2096 149.69 41.478C149.625 41.7465 149.521 42.0049 149.371 42.2634C149.222 42.5219 149.063 42.7655 148.884 42.9991C148.77 43.1433 148.636 43.3123 148.482 43.5061C148.328 43.7 148.173 43.8988 148.024 44.1126C147.875 44.3263 147.746 44.5351 147.637 44.7488C147.527 44.9626 147.463 45.1664 147.448 45.3652L145.544 43.6901C145.678 43.3222 145.902 42.9395 146.215 42.5368C146.523 42.1342 146.806 41.7415 147.065 41.3488C147.398 40.8418 147.552 40.3894 147.527 39.9918C147.502 39.5941 147.249 39.1915 146.777 38.7689L144.873 37.0938L141.895 40.4739L139.991 38.7988L147.607 30.1445L152.274 34.2504V34.2604ZM148.149 37.5759C148.586 37.9587 148.999 38.1525 149.386 38.1476C149.774 38.1426 150.162 37.9289 150.545 37.4914C150.912 37.0739 151.071 36.6712 151.022 36.2885C150.972 35.9057 150.728 35.523 150.291 35.1402L148.208 33.306L146.066 35.7417L148.149 37.5759Z" fill="#BCB4A4"/>
<path d="M155.053 39.7929L156.679 38.416L162.783 45.6237L161.157 47.0006L158.926 44.3661L151.753 50.4355L150.117 48.5018L157.29 42.4325L155.058 39.7979L155.053 39.7929Z" fill="#BCB4A4"/>
<path d="M165.81 50.1421L156.271 56.6142L154.849 54.5165L164.388 48.0444L165.81 50.1421Z" fill="#BCB4A4"/>
<path d="M171.695 60.4567L169.816 61.4608L167.192 56.5496L164.841 57.8072L167.117 62.0622L165.382 62.9918L163.106 58.7367L158.905 60.9836L157.708 58.7467L167.873 53.3086L171.695 60.4567Z" fill="#BCB4A4"/>
<path d="M173.788 65.6261L163.111 69.9607L162.156 67.6144L172.834 63.2749L173.788 65.6211V65.6261Z" fill="#BCB4A4"/>
<path d="M174.599 75.0014L173.053 69.5136L175.106 68.937L177.566 77.6708L175.637 78.2126L166.844 74.2657L168.564 80.3749L166.511 80.9515L163.876 71.5964L165.805 71.0546L174.599 75.0014Z" fill="#BCB4A4"/>
<path d="M178.496 83.387L167.122 85.2561L166.71 82.7557L178.083 80.8867L178.496 83.387Z" fill="#BCB4A4"/>
<path d="M179.515 95.7696L177.387 95.8839L177.064 89.8046L174.599 89.9338L174.892 95.5111L172.923 95.6155L172.63 90.0382L169.807 90.1873L170.135 96.3959L168.007 96.5102L167.545 87.7715L179.057 87.165L179.515 95.7745V95.7696Z" fill="#BCB4A4"/>
<path d="M178.819 105.657C178.769 106.169 178.64 106.626 178.431 107.024C178.222 107.416 177.959 107.749 177.641 108.013C177.322 108.276 176.965 108.47 176.567 108.585C176.169 108.704 175.752 108.739 175.314 108.694C174.638 108.624 174.072 108.426 173.604 108.092C173.142 107.759 172.814 107.257 172.62 106.591H172.59C172.471 106.89 172.317 107.133 172.118 107.317C171.919 107.501 171.695 107.65 171.442 107.754C171.188 107.859 170.915 107.923 170.617 107.953C170.323 107.983 170.03 107.993 169.737 107.988C169.553 107.978 169.339 107.968 169.091 107.953C168.842 107.938 168.589 107.933 168.33 107.933C168.072 107.933 167.823 107.953 167.585 107.988C167.351 108.023 167.142 108.092 166.973 108.192L167.227 105.672C167.604 105.567 168.047 105.528 168.554 105.547C169.061 105.567 169.548 105.567 170.015 105.547C170.622 105.523 171.079 105.383 171.387 105.135C171.695 104.886 171.879 104.444 171.944 103.813L172.197 101.292L167.719 100.84L167.972 98.3198L179.44 99.4731L178.819 105.657ZM173.724 104.235C173.664 104.812 173.748 105.259 173.977 105.577C174.206 105.89 174.608 106.079 175.185 106.139C175.742 106.194 176.159 106.089 176.443 105.826C176.721 105.562 176.895 105.14 176.95 104.563L177.228 101.799L173.997 101.476L173.719 104.24L173.724 104.235Z" fill="#BCB4A4"/>
<path d="M175.941 111.129L178.009 111.651L175.687 120.808L173.619 120.286L174.469 116.935L165.363 114.624L165.984 112.168L175.091 114.48L175.941 111.129Z" fill="#BCB4A4"/>
<path d="M167.038 126.678C167.167 127.036 167.152 127.384 167.003 127.717C166.929 127.881 166.824 128.025 166.695 128.145C166.566 128.264 166.417 128.353 166.252 128.413C166.088 128.473 165.914 128.508 165.731 128.508C165.547 128.508 165.368 128.468 165.194 128.388C165.035 128.319 164.9 128.214 164.786 128.08C164.672 127.946 164.577 127.797 164.508 127.638C164.438 127.479 164.403 127.305 164.403 127.131C164.403 126.952 164.438 126.778 164.513 126.614C164.592 126.435 164.697 126.286 164.831 126.166C164.965 126.042 165.109 125.953 165.273 125.888C165.437 125.828 165.611 125.793 165.795 125.793C165.979 125.793 166.153 125.833 166.322 125.908C166.675 126.067 166.914 126.325 167.043 126.683L167.038 126.678Z" fill="#BCB4A4"/>
<path d="M40.4109 140.666C40.8782 141.248 41.2162 141.859 41.4349 142.505C41.6536 143.151 41.7232 143.807 41.6487 144.469C41.5741 145.13 41.3405 145.786 40.9528 146.437C40.565 147.088 39.9984 147.715 39.2527 148.311C38.5966 148.838 37.9255 149.241 37.2395 149.514C36.5536 149.787 35.8676 149.922 35.1916 149.907C34.5155 149.892 33.8594 149.723 33.2181 149.4C32.5769 149.077 31.9854 148.575 31.4336 147.884L28.3169 144.006L37.2992 136.784L40.4159 140.661L40.4109 140.666ZM32.9746 146.412C33.2032 146.696 33.4717 146.939 33.7798 147.133C34.088 147.327 34.431 147.441 34.8138 147.481C35.1965 147.521 35.6091 147.461 36.0565 147.312C36.5039 147.163 36.9711 146.889 37.4682 146.487C37.9205 146.124 38.2934 145.751 38.5866 145.368C38.8799 144.986 39.0788 144.593 39.1732 144.18C39.2726 143.768 39.2577 143.345 39.1285 142.903C38.9992 142.46 38.7407 141.993 38.348 141.511L37.2147 140.104L31.5529 144.658L32.9696 146.417L32.9746 146.412Z" fill="#BCB4A4"/>
<path d="M44.1888 159.595C43.0306 159.58 41.8824 159.063 40.7291 158.039C39.566 157 38.9148 155.917 38.7756 154.784C38.6364 153.65 39.0937 152.502 40.1376 151.324L44.9046 145.97L46.7985 147.655L42.0315 153.009C41.8227 153.243 41.6388 153.491 41.4797 153.75C41.3207 154.013 41.2262 154.286 41.2014 154.57C41.1765 154.858 41.2312 155.156 41.3604 155.469C41.4946 155.783 41.7531 156.111 42.1359 156.454C42.8119 157.055 43.4134 157.319 43.9353 157.249C44.4573 157.179 45.009 156.822 45.5807 156.175L50.3477 150.822L52.2416 152.507L47.4746 157.86C46.4356 159.024 45.3421 159.6 44.1839 159.59L44.1888 159.595Z" fill="#BCB4A4"/>
<path d="M59.2753 157.149C59.7128 157.428 60.0607 157.746 60.3242 158.109C60.5876 158.471 60.7616 158.854 60.861 159.257C60.9555 159.659 60.9654 160.067 60.8958 160.47C60.8262 160.872 60.6721 161.265 60.4335 161.638C60.0707 162.21 59.6382 162.632 59.1312 162.896C58.6242 163.164 58.0326 163.234 57.3467 163.104L57.3268 163.129C57.5455 163.368 57.6946 163.616 57.7692 163.875C57.8437 164.133 57.8785 164.402 57.8537 164.675C57.8338 164.948 57.7692 165.227 57.6648 165.5C57.5604 165.779 57.4361 166.042 57.3019 166.301C57.2124 166.46 57.1081 166.648 56.9838 166.862C56.8595 167.076 56.7402 167.3 56.6259 167.533C56.5116 167.767 56.4171 167.996 56.3426 168.224C56.268 168.453 56.2382 168.667 56.2531 168.865L54.1106 167.513C54.1852 167.131 54.3492 166.713 54.5928 166.271C54.8364 165.828 55.0551 165.391 55.244 164.963C55.4925 164.407 55.5721 163.939 55.4876 163.552C55.3981 163.164 55.0899 162.801 54.553 162.463L52.4106 161.111L50.0047 164.919L47.8623 163.567L54.0212 153.824L59.2753 157.144V157.149ZM55.7262 161.076C56.2183 161.384 56.6557 161.509 57.0385 161.449C57.4212 161.384 57.7692 161.106 58.0774 160.619C58.3756 160.147 58.4701 159.724 58.3607 159.356C58.2514 158.988 57.9481 158.645 57.456 158.337L55.1098 156.856L53.375 159.6L55.7212 161.081L55.7262 161.076Z" fill="#BCB4A4"/>
<path d="M69.5948 165.62C69.5501 165.336 69.4606 165.068 69.3214 164.814C69.1822 164.561 69.0033 164.327 68.7796 164.123C68.5559 163.92 68.3024 163.756 68.0141 163.636C67.4872 163.413 67 163.328 66.5477 163.378C66.0954 163.427 65.6828 163.577 65.31 163.82C64.9371 164.064 64.6091 164.387 64.3208 164.779C64.0325 165.172 63.7889 165.6 63.595 166.067C63.4061 166.514 63.2769 166.972 63.2023 167.434C63.1278 167.896 63.1377 168.349 63.2222 168.781C63.3067 169.213 63.4906 169.611 63.774 169.969C64.0573 170.327 64.4599 170.615 64.9869 170.839C65.7027 171.137 66.3489 171.157 66.9354 170.889C67.522 170.62 68.0091 170.148 68.3968 169.472L70.6586 170.421C70.3206 171.063 69.9129 171.595 69.4407 172.027C68.9685 172.459 68.4466 172.778 67.8849 172.981C67.3182 173.19 66.7217 173.275 66.0954 173.245C65.469 173.215 64.8228 173.061 64.1716 172.788C63.3564 172.445 62.6854 171.997 62.1535 171.44C61.6216 170.884 61.2388 170.262 61.0002 169.581C60.7616 168.895 60.6672 168.17 60.7119 167.399C60.7567 166.629 60.9406 165.858 61.2637 165.083C61.5967 164.287 62.0292 163.601 62.5511 163.025C63.0731 162.443 63.6646 161.996 64.3257 161.678C64.9869 161.36 65.6977 161.196 66.4731 161.181C67.2436 161.166 68.034 161.33 68.8492 161.673C69.4358 161.921 69.9527 162.234 70.4001 162.622C70.8475 163.01 71.2103 163.452 71.4887 163.949C71.7621 164.446 71.9361 164.988 72.0057 165.575C72.0753 166.161 72.0106 166.783 71.8218 167.424L69.56 166.475C69.6346 166.191 69.6445 165.908 69.5998 165.625L69.5948 165.62Z" fill="#BCB4A4"/>
<path d="M77.5331 164.958L76.524 169.263L81.0674 170.327L82.0764 166.022L84.542 166.599L81.9124 177.823L79.4469 177.246L80.5802 172.405L76.0369 171.341L74.9035 176.183L72.438 175.606L75.0676 164.382L77.5331 164.958Z" fill="#BCB4A4"/>
<path d="M96.7007 167.374C97.4414 167.364 98.1373 167.469 98.7785 167.697C99.4198 167.926 99.9815 168.269 100.459 168.736C100.936 169.203 101.309 169.79 101.587 170.496C101.86 171.202 102.01 172.032 102.024 172.991C102.039 173.831 101.945 174.607 101.741 175.323C101.537 176.038 101.224 176.655 100.797 177.177C100.369 177.699 99.8324 178.116 99.1861 178.419C98.5399 178.728 97.7744 178.887 96.8946 178.902L91.9238 178.981L91.7349 167.454L96.7057 167.374H96.7007ZM96.6759 176.769C97.0437 176.764 97.3966 176.699 97.7396 176.575C98.0826 176.451 98.3858 176.252 98.6493 175.974C98.9127 175.695 99.1215 175.332 99.2756 174.89C99.4297 174.448 99.5043 173.906 99.4894 173.275C99.4794 172.693 99.4148 172.171 99.2955 171.704C99.1762 171.237 98.9823 170.839 98.7189 170.511C98.4554 170.183 98.1075 169.929 97.68 169.76C97.2525 169.591 96.7256 169.512 96.1042 169.517L94.2948 169.546L94.4141 176.809L96.6759 176.774V176.769Z" fill="#BCB4A4"/>
<path d="M109.451 166.176L115.605 176.834L113.01 177.266L111.727 174.88L107.477 175.591L107.01 178.27L104.495 178.693L106.891 166.604L109.456 166.176H109.451ZM110.763 173.126L108.631 169.194H108.601L107.82 173.618L110.768 173.126H110.763Z" fill="#BCB4A4"/>
<path d="M119.293 172.733C119.512 172.947 119.755 173.096 120.029 173.18C120.302 173.265 120.595 173.3 120.919 173.28C121.242 173.26 121.56 173.195 121.878 173.091C122.092 173.021 122.315 172.927 122.549 172.807C122.783 172.693 122.991 172.544 123.17 172.375C123.349 172.201 123.483 172.002 123.568 171.779C123.653 171.55 123.648 171.301 123.558 171.023C123.459 170.725 123.285 170.516 123.036 170.397C122.788 170.277 122.489 170.203 122.141 170.183C121.793 170.163 121.411 170.168 120.993 170.203C120.576 170.238 120.148 170.267 119.711 170.287C119.268 170.322 118.826 170.327 118.388 170.307C117.951 170.287 117.538 170.208 117.156 170.073C116.773 169.939 116.425 169.726 116.122 169.437C115.818 169.149 115.58 168.751 115.416 168.249C115.232 167.688 115.192 167.161 115.292 166.668C115.391 166.176 115.595 165.729 115.893 165.321C116.191 164.914 116.564 164.566 117.011 164.273C117.459 163.979 117.926 163.751 118.418 163.587C118.99 163.398 119.562 163.283 120.128 163.234C120.695 163.184 121.232 163.239 121.734 163.393C122.236 163.542 122.683 163.805 123.066 164.168C123.454 164.536 123.752 165.033 123.961 165.669L121.629 166.435C121.5 166.117 121.341 165.868 121.152 165.689C120.963 165.515 120.755 165.396 120.516 165.336C120.282 165.277 120.029 165.267 119.765 165.297C119.497 165.326 119.214 165.391 118.92 165.49C118.726 165.555 118.538 165.64 118.359 165.744C118.18 165.848 118.026 165.978 117.901 166.132C117.777 166.286 117.688 166.455 117.638 166.644C117.588 166.833 117.598 167.041 117.678 167.275C117.747 167.489 117.847 167.648 117.971 167.757C118.095 167.861 118.299 167.931 118.572 167.966C118.846 168.001 119.219 168.001 119.681 167.976C120.143 167.951 120.745 167.911 121.485 167.857C121.704 167.832 122.012 167.812 122.41 167.797C122.807 167.787 123.225 167.837 123.657 167.956C124.095 168.075 124.507 168.284 124.895 168.592C125.288 168.9 125.581 169.363 125.785 169.974C125.949 170.476 126.004 170.973 125.954 171.465C125.899 171.957 125.735 172.425 125.452 172.862C125.174 173.3 124.776 173.697 124.264 174.06C123.752 174.423 123.126 174.726 122.38 174.97C121.778 175.169 121.167 175.288 120.551 175.328C119.934 175.367 119.358 175.298 118.816 175.124C118.274 174.95 117.802 174.662 117.384 174.254C116.967 173.846 116.654 173.305 116.44 172.629L118.771 171.863C118.89 172.231 119.059 172.519 119.278 172.733H119.293Z" fill="#BCB4A4"/>
<path d="M131.646 158.034L137.173 168.15L134.951 169.368L129.424 159.252L131.646 158.034Z" fill="#BCB4A4"/>
<path d="M138.143 153.849C138.734 153.436 139.296 153.168 139.828 153.048C140.36 152.929 140.857 152.919 141.314 153.018C141.771 153.118 142.189 153.307 142.562 153.585C142.935 153.864 143.258 154.197 143.531 154.584C143.799 154.962 143.998 155.375 144.137 155.827C144.277 156.274 144.311 156.732 144.252 157.199C144.192 157.661 144.013 158.128 143.72 158.591C143.427 159.053 142.984 159.491 142.398 159.908L140.22 161.439L142.597 164.819L140.524 166.276L133.893 156.846L138.143 153.854V153.849ZM140.693 158.685C140.931 158.516 141.145 158.337 141.344 158.148C141.543 157.959 141.687 157.756 141.781 157.537C141.876 157.318 141.911 157.08 141.881 156.826C141.851 156.568 141.732 156.294 141.523 155.991C141.314 155.693 141.09 155.484 140.862 155.37C140.628 155.255 140.394 155.206 140.156 155.226C139.917 155.24 139.674 155.31 139.43 155.429C139.187 155.549 138.943 155.693 138.704 155.862L137.094 156.995L139.082 159.819L140.693 158.685Z" fill="#BCB4A4"/>
<path d="M143.481 152.581L142.015 151.035L148.875 144.543L150.341 146.089L147.831 148.465L154.288 155.29L152.449 157.03L145.992 150.205L143.481 152.581Z" fill="#BCB4A4"/>
<path d="M151.4 141.496L154.894 144.21L157.757 140.527L154.263 137.813L155.819 135.81L164.92 142.883L163.364 144.886L159.437 141.834L156.574 145.518L160.501 148.57L158.945 150.573L149.844 143.499L151.4 141.496Z" fill="#BCB4A4"/>
<path d="M47.7977 113.978L52.0428 125.336H49.4481L48.5881 122.806H44.343L43.4532 125.336H40.938L45.2328 113.978H47.7928H47.7977ZM47.9419 120.947L46.5103 116.782H46.4805L44.9992 120.947H47.9419Z" fill="#BCB4A4"/>
<path d="M58.3758 113.978C58.9176 113.978 59.4097 114.028 59.8571 114.122C60.3045 114.217 60.6823 114.376 61.0004 114.59C61.3185 114.808 61.5671 115.097 61.741 115.455C61.915 115.817 62.0045 116.26 62.0045 116.792C62.0045 117.363 61.8753 117.841 61.6168 118.223C61.3583 118.606 60.9706 118.919 60.4635 119.163C61.1644 119.367 61.6864 119.72 62.0293 120.222C62.3723 120.724 62.5463 121.335 62.5463 122.041C62.5463 122.613 62.437 123.11 62.2133 123.527C61.9896 123.945 61.6913 124.288 61.3135 124.551C60.9358 124.815 60.5083 125.013 60.0261 125.138C59.5439 125.262 59.0468 125.327 58.5398 125.327H53.0371V113.968H58.3808L58.3758 113.978ZM58.0577 118.576C58.505 118.576 58.8679 118.472 59.1562 118.258C59.4445 118.044 59.5837 117.701 59.5837 117.224C59.5837 116.961 59.534 116.742 59.4395 116.573C59.3451 116.404 59.2159 116.27 59.0568 116.175C58.8977 116.081 58.7138 116.011 58.51 115.976C58.3012 115.942 58.0875 115.922 57.8638 115.922H55.5275V118.576H58.0577ZM58.2018 123.398C58.4454 123.398 58.679 123.373 58.9027 123.328C59.1264 123.284 59.3202 123.199 59.4893 123.09C59.6583 122.98 59.7925 122.826 59.8969 122.637C59.9963 122.448 60.046 122.205 60.046 121.907C60.046 121.325 59.8819 120.908 59.5539 120.659C59.2258 120.41 58.7884 120.286 58.2515 120.286H55.5325V123.403H58.2068L58.2018 123.398Z" fill="#BCB4A4"/>
<path d="M66.1402 122.533C66.2794 122.796 66.4583 123.015 66.687 123.179C66.9156 123.343 67.1841 123.467 67.4922 123.547C67.8004 123.626 68.1186 123.666 68.4466 123.666C68.6703 123.666 68.9089 123.646 69.1624 123.611C69.416 123.572 69.6546 123.502 69.8782 123.398C70.1019 123.293 70.2859 123.144 70.435 122.96C70.5841 122.776 70.6587 122.538 70.6587 122.254C70.6587 121.946 70.5593 121.698 70.3654 121.509C70.1666 121.32 69.913 121.161 69.5949 121.031C69.2768 120.902 68.9139 120.793 68.5113 120.698C68.1086 120.604 67.701 120.495 67.2884 120.38C66.8659 120.276 66.4484 120.147 66.0457 119.993C65.6431 119.838 65.2802 119.64 64.9621 119.396C64.644 119.152 64.3855 118.849 64.1916 118.481C63.9928 118.114 63.8983 117.671 63.8983 117.154C63.8983 116.573 64.0226 116.066 64.2711 115.633C64.5197 115.206 64.8478 114.848 65.2504 114.559C65.653 114.271 66.1104 114.062 66.6174 113.923C67.1244 113.784 67.6364 113.714 68.1434 113.714C68.735 113.714 69.3066 113.779 69.8534 113.913C70.4002 114.047 70.8873 114.261 71.3099 114.559C71.7324 114.858 72.0704 115.235 72.3189 115.698C72.5675 116.16 72.6917 116.717 72.6917 117.378H70.2759C70.256 117.04 70.1815 116.757 70.0622 116.533C69.9379 116.309 69.7788 116.135 69.575 116.006C69.3712 115.877 69.1426 115.787 68.8841 115.737C68.6256 115.683 68.3423 115.658 68.0341 115.658C67.8303 115.658 67.6314 115.678 67.4276 115.723C67.2238 115.767 67.0449 115.842 66.8808 115.946C66.7168 116.051 66.5826 116.185 66.4732 116.344C66.3688 116.503 66.3142 116.707 66.3142 116.95C66.3142 117.174 66.3539 117.353 66.4434 117.492C66.5329 117.631 66.6969 117.756 66.9455 117.875C67.194 117.994 67.537 118.109 67.9794 118.223C68.4168 118.342 68.9934 118.486 69.7043 118.67C69.918 118.715 70.2113 118.79 70.5891 118.899C70.9669 119.008 71.3397 119.187 71.7125 119.431C72.0853 119.674 72.4034 120.002 72.6768 120.41C72.9502 120.818 73.0844 121.34 73.0844 121.976C73.0844 122.498 72.985 122.98 72.7812 123.422C72.5774 123.87 72.2792 124.253 71.8815 124.576C71.4838 124.899 70.9917 125.152 70.4002 125.331C69.8136 125.51 69.1326 125.6 68.3572 125.6C67.7309 125.6 67.1244 125.525 66.5378 125.371C65.9513 125.217 65.4294 124.978 64.977 124.645C64.5247 124.317 64.1668 123.9 63.9033 123.388C63.6399 122.881 63.5106 122.274 63.5206 121.573H65.9364C65.9364 121.956 66.006 122.279 66.1452 122.543L66.1402 122.533Z" fill="#BCB4A4"/>
<path d="M74.4414 117.338C74.6949 116.613 75.0627 115.976 75.5399 115.439C76.0171 114.903 76.6037 114.475 77.2996 114.167C77.9955 113.859 78.7759 113.705 79.6458 113.705C80.5157 113.705 81.311 113.859 82.002 114.167C82.6929 114.475 83.2745 114.898 83.7517 115.439C84.2289 115.981 84.5968 116.613 84.8503 117.338C85.1038 118.064 85.233 118.854 85.233 119.699C85.233 120.544 85.1038 121.3 84.8503 122.016C84.5968 122.732 84.2289 123.353 83.7517 123.885C83.2745 124.417 82.6929 124.829 82.002 125.133C81.311 125.436 80.5256 125.585 79.6458 125.585C78.766 125.585 77.9955 125.436 77.2996 125.133C76.6037 124.829 76.0171 124.417 75.5399 123.885C75.0627 123.353 74.6949 122.732 74.4414 122.016C74.1878 121.3 74.0586 120.53 74.0586 119.699C74.0586 118.869 74.1878 118.064 74.4414 117.338ZM76.723 121.091C76.8323 121.544 77.0113 121.946 77.2548 122.309C77.4984 122.672 77.8165 122.96 78.2092 123.174C78.6019 123.388 79.0791 123.502 79.6408 123.502C80.2025 123.502 80.6797 123.393 81.0724 123.174C81.4651 122.955 81.7833 122.667 82.0268 122.309C82.2704 121.951 82.4494 121.544 82.5587 121.091C82.6681 120.639 82.7277 120.177 82.7277 119.699C82.7277 119.222 82.673 118.72 82.5587 118.253C82.4494 117.786 82.2704 117.368 82.0268 117.005C81.7833 116.637 81.4651 116.349 81.0724 116.13C80.6797 115.912 80.2025 115.802 79.6408 115.802C79.0791 115.802 78.6019 115.912 78.2092 116.13C77.8165 116.349 77.4984 116.637 77.2548 117.005C77.0113 117.373 76.8323 117.786 76.723 118.253C76.6136 118.72 76.554 119.202 76.554 119.699C76.554 120.197 76.6086 120.639 76.723 121.091Z" fill="#BCB4A4"/>
<path d="M89.4285 113.978V123.234H94.966V125.332H86.9331V113.973H89.4285V113.978Z" fill="#BCB4A4"/>
<path d="M97.3668 125.332L93.6934 113.973H96.2533L98.7835 121.956H98.8133L101.373 113.973H103.948L100.18 125.332H97.3668Z" fill="#BCB4A4"/>
<path d="M113.413 113.978V116.076H107.418V118.512H112.921V120.45H107.418V123.234H113.542V125.332H104.923V113.973H113.418L113.413 113.978Z" fill="#BCB4A4"/>
<path d="M117.708 113.978L122.45 121.598H122.48V113.978H124.816V125.336H122.321L117.598 117.731H117.568V125.336H115.232V113.978H117.713H117.708Z" fill="#BCB4A4"/>
<path d="M126.123 116.076V113.978H135.429V116.076H132.024V125.331H129.528V116.076H126.123Z" fill="#BCB4A4"/>
<path d="M139.231 113.978V125.336H136.736V113.978H139.231Z" fill="#BCB4A4"/>
<path d="M143.909 113.978L148.651 121.598H148.681V113.978H151.017V125.336H148.522L143.799 117.731H143.77V125.336H141.433V113.978H143.914H143.909Z" fill="#BCB4A4"/>
<path d="M96.2185 191.304C43.5177 191.304 0.644287 148.431 0.644287 95.73C0.644287 43.0292 43.5177 0.155762 96.2185 0.155762C148.919 0.155762 191.793 43.0292 191.793 95.73C191.793 148.431 148.919 191.304 96.2185 191.304ZM96.2185 4.62951C45.9882 4.62951 5.11804 45.4997 5.11804 95.73C5.11804 145.96 45.9882 186.83 96.2185 186.83C146.449 186.83 187.319 145.96 187.319 95.73C187.319 45.4997 146.454 4.62951 96.2185 4.62951Z" fill="#BCB4A4"/>
</svg>
