<svg width="275" height="128" viewBox="0 0 275 128" fill="none" xmlns="http://www.w3.org/2000/svg">
<path d="M187.028 49.3391C183.145 49.3391 182.154 51.7019 178.717 51.7019C175.801 51.7019 173.256 49.1148 171.726 47.1222C171.533 46.87 171.364 46.5996 171.223 46.3142C169.316 42.4619 166.839 38.9552 163.904 35.897C165.106 35.1105 166.773 33.8979 168.347 32.3238C171.626 29.0456 169.207 24.7803 171.701 22.2843C173.323 20.6608 178.391 18.9364 178.391 18.9364C178.391 18.9364 170.816 17.4363 168.653 19.5996C165.909 22.3412 166.88 24.7169 164.446 27.1474C162.132 29.463 157.844 29.1422 155.411 28.7226C154.874 28.6304 154.364 28.449 153.886 28.185C148.958 25.4595 143.444 23.6965 137.607 23.146C137.928 21.7564 138.346 19.4622 138.346 16.9213C138.346 12.2857 133.618 10.9798 133.618 7.45161C133.618 5.15744 135.983 0.356628 135.983 0.356628C135.983 0.356628 129.564 4.64882 129.564 7.70807C129.564 11.5871 131.927 12.5808 131.927 16.0177C131.927 18.8023 129.566 21.2521 127.619 22.7983C127.011 23.2823 126.306 23.6063 125.543 23.7566C119.947 24.8607 114.729 27.0884 110.143 30.2034C109.784 29.566 108.138 26.7729 105.546 24.2341C102.232 20.9924 97.9903 23.4604 95.4698 20.9935C93.8334 19.3946 92.0489 14.3438 92.0489 14.3438C92.0489 14.3438 90.6314 21.9313 92.8182 24.0731C95.5932 26.7826 97.9571 25.7878 100.413 28.1936C102.337 30.0725 102.497 33.3078 102.275 35.7532C102.187 36.7211 101.814 37.63 101.199 38.3833C98.4271 41.7709 96.1704 45.606 94.5577 49.7769C93.4921 49.4872 90.6518 48.8069 87.409 48.8069C82.7659 48.8069 81.4633 53.5358 77.9329 53.5358C75.6398 53.5358 70.8401 51.1729 70.8401 51.1729C70.8401 51.1729 75.1323 57.5898 78.1894 57.5898C82.0706 57.5898 83.0642 55.2226 86.498 55.2226C88.6291 55.2237 90.5616 56.6079 92.0467 58.1295H92.2849L92.2839 58.1316L96.9935 58.1338C100.208 40.5744 115.587 27.5691 133.655 27.5691C151.719 27.5691 167.098 40.5744 170.308 58.1338H175.02C175.018 58.1284 175.018 58.1252 175.018 58.1198H176.76C181.396 58.1198 183.758 53.3909 187.282 53.3909C189.579 53.3909 194.379 55.7538 194.379 55.7538C194.379 55.7538 190.09 49.3391 187.028 49.3391Z" fill="#BCB4A4"/>
<path d="M113.022 58.1333V59.8703H117.641V72.5473H119.712V59.8703H124.321V58.1333H113.022ZM127.416 58.1333V72.5473H129.495V66.0269H137.098V72.5473H139.179V58.1333H137.098V64.5213H129.495V58.1333H127.416ZM143.788 58.1333V72.5473H152.709L152.719 70.8606H145.869V66.0889H151.383V64.4609H145.869V59.82H152.709V58.1333H143.788ZM47.8542 82.9693C44.8068 82.9693 42.023 83.4979 39.5046 84.5537C36.9829 85.6107 34.8191 87.0989 33.011 89.0186C31.2018 90.9404 29.8001 93.2567 28.8043 95.9683C27.8085 98.682 27.3104 101.694 27.3104 105.005C27.3104 108.337 27.8085 111.359 28.8043 114.073C29.8001 116.785 31.2018 119.102 33.011 121.024C34.8191 122.944 36.9829 124.427 39.5046 125.472C42.023 126.518 44.8068 127.041 47.8542 127.041C50.9038 127.041 53.6904 126.518 56.2207 125.472C58.7498 124.427 60.9196 122.944 62.7277 121.024C64.5368 119.102 65.9369 116.785 66.9327 114.073C67.9285 111.359 68.4282 108.337 68.4282 105.005C68.4282 101.694 67.9285 98.682 66.9327 95.9683C65.9369 93.2567 64.5368 90.9339 62.7277 89.0035C60.9196 87.0731 58.7498 85.5855 56.2207 84.5403C53.6904 83.492 50.9038 82.9693 47.8542 82.9693ZM16.2161 83.4555V112.26C16.2161 114.33 15.9879 116.136 15.5287 117.671C15.0716 119.204 14.4069 120.475 13.5335 121.48C12.659 122.487 11.6028 123.232 10.3613 123.72C9.12299 124.206 7.73058 124.453 6.18646 124.453C5.5759 124.453 5.03864 124.417 4.57186 124.345C4.10401 124.275 3.69679 124.198 3.35127 124.116C3.0079 124.034 2.70905 123.96 2.45259 123.889C2.19936 123.817 1.98112 123.782 1.79871 123.782C1.51328 123.782 1.3151 123.852 1.2035 123.995C1.09298 124.138 1.01458 124.299 0.973801 124.481C0.934099 124.767 0.899292 125.052 0.868173 125.335C0.838128 125.62 0.812039 125.904 0.792725 126.19C1.78851 126.493 2.75198 126.718 3.6866 126.86C4.62122 127.001 5.5472 127.072 6.46143 127.072C8.45194 127.072 10.2401 126.753 11.825 126.113C13.411 125.473 14.7616 124.523 15.8808 123.264C16.9978 122.004 17.8502 120.448 18.4393 118.598C19.0284 116.749 19.3229 114.617 19.3229 112.198V83.4555H16.2161ZM77.0512 83.4555V110.127C77.0512 112.504 77.429 114.724 78.1812 116.785C78.9313 118.848 80.014 120.646 81.4272 122.181C82.8393 123.714 84.5562 124.919 86.5778 125.794C88.6005 126.665 90.87 127.103 93.3917 127.103C95.9112 127.103 98.1795 126.665 100.202 125.794C102.224 124.919 103.941 123.714 105.353 122.181C106.764 120.646 107.848 118.848 108.6 116.785C109.351 114.724 109.729 112.504 109.729 110.127V83.4555H106.617V110.127C106.617 112.137 106.318 114.013 105.718 115.751C105.12 117.488 104.252 118.996 103.115 120.274C101.976 121.556 100.587 122.556 98.9531 123.277C97.3156 123.998 95.4627 124.359 93.3917 124.359C91.3186 124.359 89.4644 123.995 87.8269 123.264C86.1927 122.532 84.8117 121.526 83.684 120.246C82.554 118.966 81.69 117.456 81.0902 115.719C80.4914 113.982 80.1915 112.108 80.1915 110.096V83.4555H77.0512ZM159.681 83.4555V126.585H162.426V90.2845C162.426 89.7555 162.394 89.185 162.333 88.5777L190.343 125.975C190.506 126.199 190.674 126.358 190.846 126.448C191.019 126.54 191.238 126.585 191.502 126.585H192.965V83.4555H190.251V119.636C190.251 120.203 190.282 120.794 190.343 121.403L162.394 84.0357C162.211 83.791 162.044 83.6337 161.891 83.5628C161.737 83.492 161.519 83.4555 161.235 83.4555H159.681ZM204.184 83.4555V126.585H230.029L230.09 123.995H207.322V106.011H226.218V103.481H207.322V86.0459H230.029V83.4555H204.184ZM235.301 83.4555L251.271 108.815V126.585H254.381V108.815L270.351 83.4555H267.606C267.322 83.4555 267.085 83.5268 266.89 83.6685C266.698 83.8112 266.55 83.9941 266.449 84.2184L254.106 104.03C253.842 104.497 253.602 104.949 253.388 105.386C253.175 105.824 252.986 106.256 252.825 106.682C252.661 106.256 252.476 105.824 252.261 105.386C252.048 104.949 251.809 104.497 251.544 104.03L239.2 84.2184C239.078 83.9759 238.927 83.787 238.744 83.6551C238.562 83.5231 238.326 83.4555 238.04 83.4555H235.301ZM121.918 83.4572V126.585H125.058V107.078H130.697C131.124 107.078 131.484 107.098 131.778 107.138C132.073 107.18 132.327 107.245 132.541 107.338C132.755 107.428 132.948 107.557 133.12 107.72C133.293 107.881 133.46 108.074 133.621 108.298L147.46 125.794C147.664 126.098 147.883 126.306 148.115 126.418C148.35 126.528 148.638 126.585 148.984 126.585H151.667L136.822 107.931C136.436 107.424 136 107.017 135.512 106.712C137.381 106.509 139.074 106.079 140.587 105.418C142.102 104.758 143.391 103.913 144.459 102.888C145.525 101.861 146.348 100.667 146.927 99.3065C147.507 97.9437 147.797 96.4418 147.797 94.7946C147.797 91.0765 146.562 88.2574 144.093 86.3377C141.624 84.4159 137.91 83.4572 132.95 83.4572H121.918ZM47.8542 85.6503C50.4338 85.6503 52.7903 86.0923 54.9246 86.9765C57.0578 87.8607 58.8885 89.1361 60.4122 90.8026C61.936 92.4679 63.1128 94.5016 63.9466 96.8988C64.7782 99.2971 65.1957 102 65.1957 105.005C65.1957 108.033 64.7782 110.742 63.9466 113.129C63.1128 115.516 61.936 117.543 60.4122 119.208C58.8885 120.875 57.0578 122.144 54.9246 123.017C52.7903 123.892 50.4338 124.33 47.8542 124.33C45.295 124.33 42.9483 123.892 40.814 123.017C38.6808 122.144 36.8458 120.875 35.3113 119.208C33.7779 117.543 32.5896 115.516 31.7451 113.129C30.9028 110.742 30.4809 108.033 30.4809 105.005C30.4809 102 30.9028 99.2971 31.7451 96.8988C32.5896 94.5016 33.7779 92.4679 35.3113 90.8026C36.8458 89.1361 38.6808 87.8607 40.814 86.9765C42.9483 86.0923 45.295 85.6503 47.8542 85.6503ZM125.058 85.9252H132.95C136.793 85.9252 139.713 86.6678 141.714 88.1518C143.715 89.6348 144.719 91.9102 144.719 94.9791C144.719 96.4813 144.443 97.8329 143.894 99.0315C143.346 100.23 142.548 101.255 141.503 102.11C140.454 102.963 139.174 103.62 137.66 104.076C136.147 104.534 134.435 104.762 132.526 104.762H125.058V85.9252ZM270.3 117.181C267.704 117.181 265.599 119.287 265.599 121.884C265.599 124.481 267.704 126.585 270.3 126.585C272.897 126.585 275 124.481 275 121.884C275 119.287 272.897 117.181 270.3 117.181ZM270.3 118.028C272.425 118.028 274.157 119.756 274.157 121.884C274.157 124.009 272.425 125.739 270.3 125.739C268.176 125.739 266.446 124.009 266.446 121.884C266.446 119.756 268.176 118.028 270.3 118.028ZM268.728 119.394V124.109H269.605V122.268H269.98C270.068 122.268 270.132 122.279 270.176 122.303C270.222 122.327 270.261 122.366 270.299 122.422L271.288 123.933C271.358 124.05 271.465 124.109 271.616 124.109H272.408L271.229 122.369C271.149 122.251 271.052 122.161 270.941 122.099C271.106 122.046 271.254 121.975 271.383 121.887C271.511 121.802 271.621 121.703 271.709 121.587C271.797 121.472 271.863 121.342 271.912 121.202C271.958 121.061 271.98 120.909 271.98 120.751C271.98 120.551 271.948 120.368 271.876 120.201C271.808 120.035 271.7 119.894 271.553 119.775C271.407 119.655 271.218 119.561 270.989 119.495C270.759 119.427 270.483 119.394 270.165 119.394H268.728ZM269.605 120.073H270.165C270.488 120.073 270.729 120.138 270.885 120.266C271.045 120.394 271.124 120.577 271.124 120.818C271.124 120.938 271.105 121.045 271.065 121.146C271.027 121.245 270.966 121.334 270.885 121.405C270.808 121.479 270.707 121.534 270.585 121.576C270.462 121.617 270.318 121.638 270.153 121.638H269.605V120.073Z" fill="#BCB4A4"/>
</svg>
